<svg width="120" height="19" viewBox="0 0 120 19" fill="none" xmlns="http://www.w3.org/2000/svg">
<path d="M0.74929 15V3.36364H5.11293C6.00687 3.36364 6.75687 3.5303 7.36293 3.86364C7.97278 4.19697 8.433 4.6553 8.74361 5.23864C9.058 5.81818 9.2152 6.47727 9.2152 7.21591C9.2152 7.96212 9.058 8.625 8.74361 9.20455C8.42921 9.78409 7.9652 10.2405 7.35156 10.5739C6.73793 10.9034 5.98224 11.0682 5.08452 11.0682H2.19247V9.33523H4.80043C5.32315 9.33523 5.75118 9.24432 6.08452 9.0625C6.41785 8.88068 6.66406 8.63068 6.82315 8.3125C6.98603 7.99432 7.06747 7.62879 7.06747 7.21591C7.06747 6.80303 6.98603 6.43939 6.82315 6.125C6.66406 5.81061 6.41596 5.56629 6.07884 5.39205C5.7455 5.21402 5.31558 5.125 4.78906 5.125H2.85724V15H0.74929ZM10.9553 15V6.27273H12.9496V7.72727H13.0405C13.1996 7.22348 13.4723 6.83523 13.8587 6.5625C14.2488 6.28598 14.6939 6.14773 15.1939 6.14773C15.3075 6.14773 15.4344 6.15341 15.5746 6.16477C15.7185 6.17235 15.8378 6.18561 15.9325 6.20455V8.09659C15.8454 8.06629 15.7071 8.03977 15.5178 8.01705C15.3321 7.99053 15.1522 7.97727 14.978 7.97727C14.603 7.97727 14.2659 8.05871 13.9666 8.22159C13.6712 8.38068 13.4382 8.60227 13.2678 8.88636C13.0973 9.17045 13.0121 9.49811 13.0121 9.86932V15H10.9553ZM17.299 15V6.27273H19.3558V15H17.299ZM18.3331 5.03409C18.0073 5.03409 17.727 4.92614 17.4922 4.71023C17.2573 4.49053 17.1399 4.22727 17.1399 3.92045C17.1399 3.60985 17.2573 3.34659 17.4922 3.13068C17.727 2.91098 18.0073 2.80114 18.3331 2.80114C18.6626 2.80114 18.9429 2.91098 19.174 3.13068C19.4089 3.34659 19.5263 3.60985 19.5263 3.92045C19.5263 4.22727 19.4089 4.49053 19.174 4.71023C18.9429 4.92614 18.6626 5.03409 18.3331 5.03409ZM25.2777 15.1705C24.4065 15.1705 23.6584 14.9792 23.0334 14.5966C22.4122 14.214 21.933 13.6856 21.5959 13.0114C21.2625 12.3333 21.0959 11.553 21.0959 10.6705C21.0959 9.78409 21.2663 9.00189 21.6072 8.32386C21.9482 7.64205 22.4292 7.11174 23.0504 6.73295C23.6754 6.35038 24.4141 6.15909 25.2663 6.15909C25.9747 6.15909 26.6016 6.28977 27.147 6.55114C27.6963 6.80871 28.1338 7.17424 28.4595 7.64773C28.7853 8.11742 28.9709 8.66667 29.0163 9.29545H27.0504C26.9709 8.875 26.7815 8.52462 26.4822 8.24432C26.1868 7.96023 25.791 7.81818 25.2947 7.81818C24.8743 7.81818 24.505 7.93182 24.1868 8.15909C23.8686 8.38258 23.6205 8.70455 23.4425 9.125C23.2682 9.54545 23.1811 10.0492 23.1811 10.6364C23.1811 11.2311 23.2682 11.7424 23.4425 12.1705C23.6167 12.5947 23.861 12.9223 24.1754 13.1534C24.4936 13.3807 24.8667 13.4943 25.2947 13.4943C25.5978 13.4943 25.8686 13.4375 26.1072 13.3239C26.3497 13.2064 26.5523 13.0379 26.7152 12.8182C26.8781 12.5985 26.9898 12.3314 27.0504 12.017H29.0163C28.9671 12.6345 28.7853 13.1818 28.4709 13.6591C28.1565 14.1326 27.7285 14.5038 27.1868 14.7727C26.6451 15.0379 26.0088 15.1705 25.2777 15.1705ZM30.7053 15V6.27273H32.7621V15H30.7053ZM31.7393 5.03409C31.4136 5.03409 31.1333 4.92614 30.8984 4.71023C30.6636 4.49053 30.5462 4.22727 30.5462 3.92045C30.5462 3.60985 30.6636 3.34659 30.8984 3.13068C31.1333 2.91098 31.4136 2.80114 31.7393 2.80114C32.0689 2.80114 32.3492 2.91098 32.5803 3.13068C32.8151 3.34659 32.9325 3.60985 32.9325 3.92045C32.9325 4.22727 32.8151 4.49053 32.5803 4.71023C32.3492 4.92614 32.0689 5.03409 31.7393 5.03409ZM36.9339 9.88636V15H34.8771V6.27273H36.843V7.75568H36.9453C37.1461 7.26705 37.4661 6.87879 37.9055 6.59091C38.3487 6.30303 38.8961 6.15909 39.5476 6.15909C40.1499 6.15909 40.6745 6.28788 41.1214 6.54545C41.5722 6.80303 41.9207 7.17614 42.1669 7.66477C42.4169 8.15341 42.54 8.74621 42.5362 9.44318V15H40.4794V9.76136C40.4794 9.17803 40.3279 8.72159 40.0249 8.39205C39.7256 8.0625 39.3108 7.89773 38.7805 7.89773C38.4207 7.89773 38.1006 7.97727 37.8203 8.13636C37.5438 8.29167 37.326 8.51705 37.1669 8.8125C37.0116 9.10795 36.9339 9.46591 36.9339 9.88636ZM48.4226 18.4545C47.6839 18.4545 47.0495 18.3542 46.5192 18.1534C45.9889 17.9564 45.5627 17.6913 45.2408 17.358C44.9188 17.0246 44.6953 16.6553 44.5703 16.25L46.4226 15.8011C46.5059 15.9716 46.6271 16.1402 46.7862 16.3068C46.9453 16.4773 47.1593 16.6174 47.4283 16.7273C47.701 16.8409 48.0438 16.8977 48.4567 16.8977C49.04 16.8977 49.523 16.7557 49.9055 16.4716C50.2881 16.1913 50.4794 15.7292 50.4794 15.0852V13.4318H50.3771C50.2711 13.6439 50.1158 13.8617 49.9112 14.0852C49.7105 14.3087 49.4434 14.4962 49.1101 14.6477C48.7805 14.7992 48.3658 14.875 47.8658 14.875C47.1953 14.875 46.5874 14.7178 46.0419 14.4034C45.5002 14.0852 45.0684 13.6117 44.7464 12.983C44.4283 12.3504 44.2692 11.5587 44.2692 10.608C44.2692 9.64962 44.4283 8.84091 44.7464 8.18182C45.0684 7.51894 45.5021 7.01705 46.0476 6.67614C46.593 6.33144 47.201 6.15909 47.8714 6.15909C48.3828 6.15909 48.8033 6.24621 49.1328 6.42045C49.4661 6.59091 49.7313 6.79735 49.9283 7.03977C50.1252 7.27841 50.2749 7.50379 50.3771 7.71591H50.4908V6.27273H52.5192V15.142C52.5192 15.8883 52.3411 16.5057 51.9851 16.9943C51.629 17.483 51.1423 17.8485 50.5249 18.0909C49.9074 18.3333 49.2067 18.4545 48.4226 18.4545ZM48.4396 13.2614C48.8752 13.2614 49.2464 13.1553 49.5533 12.9432C49.8601 12.7311 50.093 12.4261 50.2521 12.0284C50.4112 11.6307 50.4908 11.1534 50.4908 10.5966C50.4908 10.0473 50.4112 9.56629 50.2521 9.15341C50.0968 8.74053 49.8658 8.42045 49.5589 8.19318C49.2559 7.96212 48.8828 7.84659 48.4396 7.84659C47.9813 7.84659 47.5987 7.96591 47.2919 8.20455C46.9851 8.44318 46.754 8.77083 46.5987 9.1875C46.4434 9.60038 46.3658 10.0701 46.3658 10.5966C46.3658 11.1307 46.4434 11.5985 46.5987 12C46.7578 12.3977 46.9908 12.7083 47.2976 12.9318C47.6082 13.1515 47.9889 13.2614 48.4396 13.2614ZM58.5959 18.2727V6.27273H60.6186V7.71591H60.7379C60.844 7.50379 60.9936 7.27841 61.1868 7.03977C61.38 6.79735 61.6413 6.59091 61.9709 6.42045C62.3004 6.24621 62.7209 6.15909 63.2322 6.15909C63.9065 6.15909 64.5144 6.33144 65.0561 6.67614C65.6016 7.01705 66.0334 7.52273 66.3516 8.19318C66.6735 8.85985 66.8345 9.67803 66.8345 10.6477C66.8345 11.6061 66.6773 12.4205 66.3629 13.0909C66.0485 13.7614 65.6205 14.2727 65.0788 14.625C64.5372 14.9773 63.9235 15.1534 63.2379 15.1534C62.7379 15.1534 62.3232 15.0701 61.9936 14.9034C61.6641 14.7367 61.3989 14.536 61.1982 14.3011C61.0012 14.0625 60.8478 13.8371 60.7379 13.625H60.6527V18.2727H58.5959ZM60.6129 10.6364C60.6129 11.2008 60.6925 11.6951 60.8516 12.1193C61.0144 12.5436 61.2474 12.875 61.5504 13.1136C61.8572 13.3485 62.2285 13.4659 62.6641 13.4659C63.1186 13.4659 63.4993 13.3447 63.8061 13.1023C64.1129 12.8561 64.344 12.5208 64.4993 12.0966C64.6584 11.6686 64.7379 11.1818 64.7379 10.6364C64.7379 10.0947 64.6603 9.61364 64.505 9.19318C64.3497 8.77273 64.1186 8.44318 63.8118 8.20455C63.505 7.96591 63.1224 7.84659 62.6641 7.84659C62.2247 7.84659 61.8516 7.96212 61.5447 8.19318C61.2379 8.42424 61.005 8.74811 60.8459 9.16477C60.6906 9.58144 60.6129 10.072 60.6129 10.6364ZM70.6527 3.36364V15H68.5959V3.36364H70.6527ZM75.2791 15.1761C74.7261 15.1761 74.228 15.0777 73.7848 14.8807C73.3454 14.6799 72.9969 14.3845 72.7393 13.9943C72.4856 13.6042 72.3587 13.1231 72.3587 12.5511C72.3587 12.0587 72.4496 11.6515 72.6314 11.3295C72.8132 11.0076 73.0613 10.75 73.3757 10.5568C73.6901 10.3636 74.0443 10.2178 74.4382 10.1193C74.8359 10.017 75.2469 9.94318 75.6712 9.89773C76.1825 9.8447 76.5973 9.79735 76.9155 9.75568C77.2337 9.71023 77.4647 9.64205 77.6087 9.55114C77.7564 9.45644 77.8303 9.31061 77.8303 9.11364V9.07955C77.8303 8.65152 77.7034 8.32008 77.4496 8.08523C77.1958 7.85038 76.8303 7.73295 76.353 7.73295C75.8492 7.73295 75.4496 7.8428 75.1541 8.0625C74.8625 8.2822 74.6655 8.54167 74.5632 8.84091L72.6428 8.56818C72.7943 8.03788 73.0443 7.5947 73.3928 7.23864C73.7412 6.87879 74.1674 6.60985 74.6712 6.43182C75.175 6.25 75.7318 6.15909 76.3416 6.15909C76.7621 6.15909 77.1806 6.20833 77.5973 6.30682C78.014 6.4053 78.3946 6.56818 78.7393 6.79545C79.084 7.01894 79.3606 7.32386 79.5689 7.71023C79.781 8.09659 79.8871 8.57955 79.8871 9.15909V15H77.9098V13.8011H77.8416C77.7166 14.0436 77.5405 14.2708 77.3132 14.483C77.0897 14.6913 76.8075 14.8598 76.4666 14.9886C76.1295 15.1136 75.7337 15.1761 75.2791 15.1761ZM75.8132 13.6648C76.2261 13.6648 76.584 13.5833 76.8871 13.4205C77.1901 13.2538 77.4231 13.0341 77.5859 12.7614C77.7526 12.4886 77.8359 12.1913 77.8359 11.8693V10.8409C77.7715 10.8939 77.6617 10.9432 77.5064 10.9886C77.3549 11.0341 77.1844 11.0739 76.995 11.108C76.8056 11.142 76.6181 11.1723 76.4325 11.1989C76.2469 11.2254 76.0859 11.2481 75.9496 11.267C75.6428 11.3087 75.3681 11.3769 75.1257 11.4716C74.8833 11.5663 74.692 11.6989 74.5518 11.8693C74.4117 12.036 74.3416 12.2519 74.3416 12.517C74.3416 12.8958 74.4799 13.1818 74.7564 13.375C75.0329 13.5682 75.3852 13.6648 75.8132 13.6648ZM84.0121 9.88636V15H81.9553V6.27273H83.9212V7.75568H84.0234C84.2242 7.26705 84.5443 6.87879 84.9837 6.59091C85.4268 6.30303 85.9742 6.15909 86.6257 6.15909C87.228 6.15909 87.7526 6.28788 88.1996 6.54545C88.6503 6.80303 88.9988 7.17614 89.245 7.66477C89.495 8.15341 89.6181 8.74621 89.6143 9.44318V15H87.5575V9.76136C87.5575 9.17803 87.406 8.72159 87.103 8.39205C86.8037 8.0625 86.389 7.89773 85.8587 7.89773C85.4988 7.89773 85.1787 7.97727 84.8984 8.13636C84.6219 8.29167 84.4041 8.51705 84.245 8.8125C84.0897 9.10795 84.0121 9.46591 84.0121 9.88636ZM98.603 8.57955L96.728 8.78409C96.675 8.5947 96.5821 8.41667 96.4496 8.25C96.3208 8.08333 96.1465 7.94886 95.9268 7.84659C95.7071 7.74432 95.4382 7.69318 95.12 7.69318C94.692 7.69318 94.3321 7.78598 94.0405 7.97159C93.7526 8.1572 93.6106 8.39773 93.6143 8.69318C93.6106 8.94697 93.7034 9.15341 93.8928 9.3125C94.0859 9.47159 94.4041 9.60227 94.8473 9.70455L96.3359 10.0227C97.1617 10.2008 97.7753 10.483 98.1768 10.8693C98.5821 11.2557 98.7867 11.7614 98.7905 12.3864C98.7867 12.9356 98.6257 13.4205 98.3075 13.8409C97.9931 14.2576 97.5556 14.5833 96.995 14.8182C96.4344 15.053 95.7905 15.1705 95.0632 15.1705C93.995 15.1705 93.1352 14.947 92.4837 14.5C91.8321 14.0492 91.4439 13.4223 91.3189 12.6193L93.3246 12.4261C93.4155 12.8201 93.6087 13.1174 93.9041 13.3182C94.1996 13.5189 94.584 13.6193 95.0575 13.6193C95.5462 13.6193 95.9382 13.5189 96.2337 13.3182C96.5329 13.1174 96.6825 12.8693 96.6825 12.5739C96.6825 12.3239 96.5859 12.1174 96.3928 11.9545C96.2034 11.7917 95.9079 11.6667 95.5064 11.5795L94.0178 11.267C93.1806 11.0928 92.5613 10.7992 92.1598 10.3864C91.7583 9.9697 91.5594 9.44318 91.5632 8.80682C91.5594 8.26894 91.7053 7.80303 92.0007 7.40909C92.3 7.01136 92.7147 6.70455 93.245 6.48864C93.7791 6.26894 94.3946 6.15909 95.0916 6.15909C96.1143 6.15909 96.9193 6.37689 97.5064 6.8125C98.0973 7.24811 98.4628 7.83712 98.603 8.57955ZM103.398 16.12H119.398V0.12H103.398V16.12Z" fill="#1463FF"/>
</svg>
