<?xml version="1.0" standalone="no"?>
<!DOCTYPE svg PUBLIC "-//W3C//DTD SVG 1.1//EN" "http://www.w3.org/Graphics/SVG/1.1/DTD/svg11.dtd" >
<svg xmlns="http://www.w3.org/2000/svg" xmlns:xlink="http://www.w3.org/1999/xlink" version="1.1">
<metadata>
Created by FontForge 20201107 at Wed Oct 28 16:34:01 1998
 By 
We love pirated fonts, who cares !
</metadata>
<defs>
<font id="Chandra" horiz-adv-x="1780" >
  <font-face 
    font-family="Chandra"
    font-weight="400"
    font-stretch="normal"
    units-per-em="6322"
    panose-1="0 0 4 0 0 0 0 0 0 0"
    ascent="4865"
    descent="-1457"
    x-height="2922"
    cap-height="2989"
    bbox="-2961 -1457 4815 4865"
    underline-thickness="20"
    underline-position="-143"
    unicode-range="U+0020-222B"
  />
<missing-glyph horiz-adv-x="3161" 
d="M395 0v4865h2371v-4865h-2371zM790 395h1581v4075h-1581v-4075z" />
    <glyph glyph-name=".notdef" horiz-adv-x="3161" 
d="M395 0v4865h2371v-4865h-2371zM790 395h1581v4075h-1581v-4075z" />
    <glyph glyph-name=".null" horiz-adv-x="0" 
 />
    <glyph glyph-name="glyph2" 
 />
    <glyph glyph-name="space" unicode=" " 
 />
    <glyph glyph-name="exclam" unicode="!" horiz-adv-x="2049" 
d="M1951 0q21 -66 21 -124q0 -161 -144 -271q-43 -33 -147 -79l-442 244q85 23 118 40q116 60 116 177q0 28 -6 53q-96 400 -860 978q-239 181 -267 191l304 293l276 287q-276 150 -547 301q-180 160 -180 372q0 270 231 430q205 141 486 141q406 0 817 -460q70 -78 70 -209
q0 -165 -128 -389q-35 -61 -128 -190l-685 -691q231 -159 594 -496q438 -407 501 -598zM1345 2413q0 297 -303 297q-138 0 -262 -96q-132 -102 -136 -236q-7 -208 170 -319q132 -67 272 -133q123 117 175 199q84 133 84 288z" />
    <glyph glyph-name="quotedbl" unicode="&#x22;" horiz-adv-x="0" 
d="M1089 -1333l-211 -124q-91 153 -213 341q-227 350 -552 634q-390 340 -740 340q-229 0 -397 -108q-181 -117 -181 -304q0 -212 276 -212q167 0 398 98q83 35 192 97l207 -288q-124 -66 -191 -93q-227 -93 -398 -93q-316 0 -538 157q-249 177 -249 480q0 290 248 441
q207 126 516 126q433 0 905 -385q410 -335 669 -717q64 -96 259 -390z" />
    <glyph glyph-name="numbersign" unicode="#" horiz-adv-x="2355" 
d="M2195 961q-60 -353 -350 -536q-205 -129 -490 -155l612 -686l-256 -155l-621 806q-33 6 -160 27q-253 42 -336 81q-137 64 -201 232q-23 59 -10 123q11 52 34 124q38 121 290 121q72 0 138 -62q49 -46 185 -189l17 -19q21 -22 84 -90l7 -8q272 58 403 124
q282 142 282 386q0 176 -95 305q-7 10 -155 151q-73 -11 -128 -22q-71 -15 -287 -44l-482 -45l-65 66q-61 62 -99 129l-112 194q234 36 524 36h128q66 0 187 -17q155 -22 318 70q196 111 196 293q0 260 -212 325q-99 31 -499 33l-818 5l-159 341h870q1142 0 1142 -811
q0 -160 -100 -301q-72 -100 -180 -168q116 -102 238 -203q165 -178 165 -381q0 -52 -5 -80z" />
    <glyph glyph-name="dollar" unicode="$" horiz-adv-x="2988" 
d="M2842 2573l-1226 -970l504 -386q94 -72 155 -150q25 -33 104 -95q54 -43 66 -95q4 -16 -8 -61q-13 -50 -13 -64v-30q0 -227 -294 -396q-267 -153 -551 -153q-1053 0 -1053 761q0 131 90 253q26 34 92 93l471 420l-1209 1080l243 102l1137 -1053l1312 1124zM1972 845
q0 102 -91 277q-60 115 -243 242q-54 37 -182 111l-536 -478q-23 -29 -28 -49q-44 -79 -44 -188q0 -159 160 -242q134 -70 337 -70q225 0 413 102q214 117 214 295z" />
    <glyph glyph-name="percent" unicode="%" horiz-adv-x="3030" 
d="M2934 -315l-318 -80l-612 1458q-155 -78 -254 -111q-215 -71 -462 -71q-345 0 -713 257q-451 315 -451 774q0 81 5 120q33 274 176 727q49 156 138 403l440 -204q-93 -262 -148 -442q-155 -505 -155 -714q0 -659 756 -659q137 0 303 61q110 40 206 102q-47 99 -80 186
q-12 33 -90 253q-21 61 -21 114q0 191 213 191q71 0 143 -26q463 -168 463 -346q0 -30 -16 -66q-75 -158 -207 -310q-25 -29 -65 -62z" />
    <glyph glyph-name="ampersand" unicode="&#x26;" horiz-adv-x="3369" 
d="M3097 1320q0 -488 -287 -815q-318 -363 -877 -363q-818 0 -1291 708q-402 601 -467 1315l-65 708l283 27v-111q0 -431 69 -805q274 -1502 1387 -1502q773 0 924 851q-72 -31 -138 -49q-176 -48 -319 -48q-49 0 -86 4q-826 90 -903 672q-5 19 -5 59q0 245 227 407
q204 146 458 146q590 0 867 -381q223 -307 223 -823zM2661 1732q-10 163 -42 239q-99 243 -383 243q-48 0 -80 -4q-398 -50 -398 -408q0 -306 387 -306q27 0 69 6q197 28 342 127q47 33 105 103z" />
    <glyph glyph-name="quotesingle" unicode="'" horiz-adv-x="212" 
d="M-156 -452q0 -306 -308 -505q-279 -181 -663 -181q-462 0 -936 173q-421 153 -654 323l-244 177l160 146q247 -193 409 -283q509 -283 994 -283q290 0 556 128q315 151 315 372q0 292 -240 292q-42 0 -75 -13q-6 -3 -25 -14l-479 -279l-314 302q144 84 234 124
q276 123 484 123q307 0 529 -143q257 -167 257 -459z" />
    <glyph glyph-name="parenleft" unicode="(" horiz-adv-x="2443" 
d="M2254 213q0 -195 -144 -315l-344 -287l-352 230l308 235q40 37 59 61q61 77 53 142q-24 188 -394 500l-430 364q-148 122 -588 490q-304 254 -304 585q0 317 328 524q300 190 691 190q281 0 559 -152q305 -167 356 -402q10 -44 10 -65v-63q0 -276 -276 -488
q-304 -234 -872 -234q225 -165 517 -404q339 -278 558 -509q265 -280 265 -402zM1664 2404q0 213 -287 213q-81 0 -129 -4q-236 0 -464 -141q-246 -152 -246 -342q0 -133 42 -212q27 -50 85 -99q999 0 999 585z" />
    <glyph glyph-name="parenright" unicode=")" horiz-adv-x="2685" 
d="M2516 1443q0 -453 -332 -830q-365 -414 -889 -414q-529 0 -884 367q-333 345 -333 811q0 454 345 828q374 404 904 404q516 0 866 -377q323 -347 323 -789zM2193 1555q0 324 -182 549q-200 247 -547 247q-448 0 -756 -366q-279 -330 -279 -719q0 -801 728 -801
q457 0 763 365q273 327 273 725z" />
    <glyph glyph-name="asterisk" unicode="*" horiz-adv-x="2994" 
d="M2856 646q-263 -191 -452 -291q-552 -293 -1024 -293q-430 0 -827 276q-418 290 -418 640q0 204 124 315l1869 1683l197 -310l-1695 -1510q-143 -127 -143 -271q0 -244 211 -391q188 -131 442 -131q54 0 96 5q409 49 892 323q180 102 405 270z" />
    <glyph glyph-name="plus" unicode="+" horiz-adv-x="40" 
d="M-399 3614l255 -199l-255 -225l-255 211z" />
    <glyph glyph-name="comma" unicode="," horiz-adv-x="1173" 
d="M855 49q-207 -300 -626 -761l-91 158l309 417q15 20 21 57q0 18 5 31q0 66 -69 155l-212 200l429 332q298 -281 298 -421q0 -76 -64 -168z" />
    <glyph glyph-name="hyphen" unicode="-" horiz-adv-x="1603" 
d="M1324 -296l-117 -112q-810 524 -1100 1395q-64 191 -64 536q0 344 64 536q178 536 590 970q230 242 510 425l117 -111q-162 -135 -312 -301q-245 -271 -352 -526q-195 -466 -195 -993t195 -991q179 -424 664 -828z" />
    <glyph glyph-name="hyphen" unicode="&#x2010;" horiz-adv-x="1603" 
d="M1324 -296l-117 -112q-810 524 -1100 1395q-64 191 -64 536q0 344 64 536q178 536 590 970q230 242 510 425l117 -111q-162 -135 -312 -301q-245 -271 -352 -526q-195 -466 -195 -993t195 -991q179 -424 664 -828z" />
    <glyph glyph-name="period" unicode="." horiz-adv-x="1126" 
d="M704 -155l-371 275v3387l371 -275v-3387z" />
    <glyph glyph-name="slash" unicode="/" horiz-adv-x="2120" 
d="M2452 2639h-1059v-1058q0 -161 -165 -319q-137 -132 -318 -199q87 -132 366 -399q195 -186 504 -461q11 -10 251 -220l-192 -173q-50 39 -371 336q-417 387 -722 718q-417 452 -474 638q-11 35 -11 70q0 150 171 177q100 16 276 -67q59 -28 271 -127v1084h-976l-212 283
h2410z" />
    <glyph glyph-name="zero" unicode="0" horiz-adv-x="2530" 
d="M2787 2639h-797v-1289q0 -238 -229 -393q-204 -138 -457 -138q-297 0 -541 155q-290 184 -404 541l-16 48v1076h-329l-212 283h2773zM1623 1457v1182h-908v-1204l64 -226q79 -124 334 -124q205 0 352 99q158 107 158 273z" />
    <glyph glyph-name="one" unicode="1" horiz-adv-x="3190" 
d="M3402 2639h-640v-2763l-372 274v1590h-1067q642 -363 642 -743q0 -404 -578 -572l845 -757l-202 -164l-899 885q-95 -17 -175 -17q-239 0 -424 84q-223 102 -250 283q0 135 98 219q94 78 232 78q140 0 291 -102q134 -91 208 -208q462 79 462 332q0 333 -553 615
q-203 103 -552 213v169h1922v584h-2395l-213 283h3407z" />
    <glyph glyph-name="two" unicode="2" horiz-adv-x="2584" 
d="M933 477q-250 80 -250 253q0 132 117 220q108 81 244 81q473 0 808 88q1 5 1 8q0 53 -225 284q-116 18 -179 18q-101 0 -188 -8q-379 -35 -583 -125q-109 74 -144 111q-74 79 -74 164q0 222 341 222h1162v735h801l-201 283h-2760l213 -283h1575v-439h-1014
q-468 0 -468 -403q0 -214 389 -518q-155 -106 -155 -301q0 -48 5 -67q73 -286 420 -473q321 -173 691 -173q149 0 309 65q46 10 139 35l524 -761l203 115l-499 713q128 88 143 102q75 73 75 190q0 101 -203 203q-95 48 -330 129q-49 17 -105 17q-191 0 -191 -123
q0 -46 31 -93l154 -230q-179 -83 -457 -83q-182 0 -319 44z" />
    <glyph glyph-name="three" unicode="3" horiz-adv-x="3405" 
d="M2568 1322v1317h-1383q-71 -57 -96 -84q-96 -103 -96 -182q0 -216 176 -332q52 -35 228 -102l328 -4q42 -1 219 -23q71 -9 144 -26l175 -345q-110 29 -186 44q-226 44 -409 44q-506 0 -574 -296q-11 -47 -11 -89q0 -160 154 -253q137 -83 336 -83q303 0 854 328
q76 45 141 86zM3682 2639h-742v-2763l-372 274v769l-29 -15q-470 -245 -760 -245q-386 0 -722 222q-356 236 -356 549q0 204 207 350q70 49 207 106q-417 201 -546 518q-28 67 -28 138q0 29 6 67l5 30h-520l-213 283h3650z" />
    <glyph glyph-name="four" unicode="4" horiz-adv-x="2655" 
d="M1100 602q-2 -40 -24 -85q-31 -61 -142 -176q-50 -52 -235 -173q8 -12 68 -7q85 7 107 6l247 127l264 121l238 -70q-224 -88 -280 -114q-511 -236 -511 -423q0 -38 20 -69q47 -71 185 -58q158 15 355 125q292 163 438 352l186 240l33 54l-119 173q-68 -22 -139 -36
q-174 -35 -287 -35q-214 0 -404 48zM2184 256q-75 -102 -145 -172q-253 -256 -569 -402q-237 -110 -530 -118q-325 -9 -420 133q-59 88 37 207q42 52 173 158q-242 10 -337 24q-238 35 -303 133q-32 49 -32 100q0 76 68 160q107 131 335 236q113 52 218 72q-67 44 -129 96
q-395 329 -395 795q0 320 351 443q187 66 472 66h738v452h-1728l-212 283h2917l212 -283h-811v-757h-1047q-180 0 -318 -53q-245 -94 -245 -323q-5 -36 -5 -54q0 -307 273 -492q240 -163 561 -163q230 0 419 88l-154 231q-31 47 -31 93q0 124 191 124q57 0 105 -17
q243 -84 330 -129q202 -103 202 -204q0 -115 -73 -191q-17 -13 -144 -101l499 -713l-203 -115zM753 660q-132 0 -256 -94q-116 -88 -116 -168q0 -90 121 -169q28 -18 64 -30q48 10 111 56q157 113 209 233q19 44 19 79q0 93 -152 93z" />
    <glyph glyph-name="five" unicode="5" horiz-adv-x="3797" 
d="M3984 2639h-985v-354q171 -54 315 -200q212 -216 212 -526q0 -73 -17 -164q-80 -434 -541 -767q-438 -317 -978 -376q-42 -9 -96 -9h-79q-398 0 -766 181q-424 209 -424 519q0 205 223 350q-167 78 -276 186q-160 157 -160 340q0 225 221 367q202 130 480 130
q122 0 282 -22q61 -8 122 -23l182 -296l-203 26q-242 31 -313 31q-419 0 -419 -300q0 -146 132 -262q105 -93 164 -93q27 0 125 25q118 30 136 33q101 17 282 35q26 0 79 5l255 -319h-80q-343 0 -541 -36q-342 -62 -342 -212q0 -13 2 -23q0 -194 210 -324q195 -121 432 -118
q16 1 75 5q467 32 876 278q63 38 261 182q-378 180 -505 275q-340 254 -340 566q0 278 239 434q156 102 367 128v328h-2540l-212 283h3933zM3292 1595q0 464 -468 464q-177 0 -304 -100q-136 -108 -136 -281q0 -219 149 -376q97 -103 457 -261l223 265q79 142 79 289z" />
    <glyph glyph-name="six" unicode="6" horiz-adv-x="2941" 
d="M3150 2639h-1035v-854l-409 -63q-447 -70 -786 -150q-124 -29 -214 -130q-95 -105 -95 -229q0 -263 249 -423q229 -148 554 -148q88 0 155 9q282 38 642 120q140 32 303 74l207 -291q-206 -66 -323 -93q-377 -88 -729 -93q-17 0 -53 -2.5t-54 -2.5q-485 0 -838 285
q-336 271 -415 681q-11 56 -11 97q0 337 405 429q285 65 684 124l357 53v607h-1687l-212 283h3092z" />
    <glyph glyph-name="seven" unicode="7" horiz-adv-x="2982" 
d="M3185 2639h-1146q155 -247 155 -465q0 -163 -87 -310q-17 -29 -48 -58q326 -157 442 -310q139 -184 139 -442q0 -332 -347 -558q-313 -204 -710 -204q-523 0 -946 279q-453 299 -453 722q0 691 1181 691q246 0 306 16q140 38 140 192q0 151 -37 292q-18 65 -59 155h-1688
l-213 283h3157zM2273 1129q0 379 -436 589q-406 -40 -589 -40q-707 0 -707 -469q0 -324 282 -508q259 -169 658 -169q306 0 530 142q262 166 262 455z" />
    <glyph glyph-name="eight" unicode="8" horiz-adv-x="2917" 
d="M3109 2639h-618v-721h-940q-335 0 -435 -32q-154 -49 -154 -221q0 -84 66 -184q74 -112 167 -112q169 0 505.5 28.5t504.5 28.5q264 0 451 -159q197 -168 197 -426q0 -303 -314 -503q-288 -183 -664 -183q-380 0 -796 226q-331 179 -596 420q-35 33 -228 230l149 72
q86 -91 175 -178q196 -189 467 -336q334 -181 643 -181q635 0 856 460q26 55 26 102q0 159 -153 159q-145 0 -335 -18q-506 -48 -722 -48q-185 0 -426 221q-276 253 -276 531q0 256 202 346q129 57 393 57h840v421h-2073l-212 283h3088z" />
    <glyph glyph-name="nine" unicode="9" horiz-adv-x="2982" 
d="M3142 2635l-695 4v-727l-1178 -8q-755 -5 -755 -673q0 -310 292 -513q197 -137 500 -213q-17 49 -27 106q-26 141 -26 234q0 294 196 456q183 151 484 151q306 0 532 -169q249 -185 249 -482q0 -315 -309 -487q-268 -150 -664 -150q-600 0 -1047 365q-501 410 -501 930
q0 401 315 595q261 161 687 156l828 -9v438h-2007l-212 283h3157zM2447 908q0 265 -382 265q-220 0 -366 -105q-165 -118 -165 -329q0 -184 70 -265q326 0 552 88q291 114 291 346z" />
    <glyph glyph-name="colon" unicode=":" horiz-adv-x="2324" 
d="M3035 1257q-590 -150 -722 -150q-54 0 -101 9q-482 93 -701 327q-187 -275 -522 -349l1096 -944l-191 -186q-57 40 -325 288q-402 371 -659 642q-382 404 -510 652q-26 51 -26 106q0 150 175 150q27 0 48 -4q198 -38 324 -98l185 -88q24 42 27 66q32 75 32 200v761h-1137
l-212 283h2946l212 -283h-1437v-1027q194 -171 542 -203q14 -3 32 -3q113 0 343 51q267 59 449 119z" />
    <glyph glyph-name="semicolon" unicode=";" horiz-adv-x="3243" 
d="M2391 1491v1148h-1063v-1027q194 -171 542 -203q15 -3 33 -3q113 0 343 51q81 18 145 34zM-207 2922l3464 -1l209 -282h-704v-2763l-372 274l1 1036q-267 -79 -287 -79q-54 0 -101 9q-482 93 -700 327q-188 -275 -522 -349l1095 -944l-191 -186q-56 40 -325 288
q-402 371 -659 642q-382 404 -510 652q-26 51 -26 106q0 150 175 150q27 0 48 -4q198 -38 324 -98l185 -88q24 42 28 66q31 75 31 200v761h-951z" />
    <glyph glyph-name="less" unicode="&#x3c;" horiz-adv-x="1730" 
d="M379 2353l-260 328q211 302 626 302q51 0 127 -9q287 -34 459 -245q156 -192 159 -446q9 -599 -654 -758v-764h-218v1070q116 0 306 121q182 116 236 211q69 120 69 243q0 242 -213 306q-43 13 -91 13q-216 0 -455 -255q-91 -97 -91 -117zM729 523l315 -243l-315 -244
l-291 244z" />
    <glyph glyph-name="equal" unicode="=" horiz-adv-x="873" 
d="M402 467l255 -209l-255 -212l-254 212z" />
    <glyph glyph-name="greater" unicode="&#x3e;" horiz-adv-x="3503" 
d="M3706 2639h-610v-2763l-372 274v833l-1765 -1063l-322 213l1939 1040l-1228 342q-63 -38 -191 -102q-374 -189 -680 -302l-228 -84l-288 226q81 31 218 80q453 163 755 336q-258 100 -435 249q-250 209 -250 451q0 249 242 415q228 156 533 156q349 0 652 -206
q320 -218 320 -503q0 -192 -132 -372q-102 -138 -255 -220l1115 -302v1302h-477l-214 283h1461zM1624 2316q0 394 -482 394q-197 0 -342 -92q-168 -108 -168 -294q0 -348 535 -544q160 76 266 172q191 173 191 364z" />
    <glyph glyph-name="question" unicode="?" horiz-adv-x="3731" 
d="M3888 2639h-2530v-934q240 -66 304 -66q124 358 749 358q373 0 697 -354q270 -295 419 -660q36 -90 144 -358l-244 -103q-52 141 -111 293q-123 311 -326 549q-256 301 -536 301q-52 0 -79 -4q-479 -70 -479 -430q0 -115 95 -164q60 -31 224 -53q135 -18 319 62
q25 11 74 40l308 -288q-85 -27 -202 -57q-243 -63 -339 -63q-304 0 -513 140q-235 157 -264 445l-308 80q-142 -217 -414 -310q90 -134 366 -399q109 -105 505 -461q64 -57 250 -220l-192 -173q-56 44 -371 336q-420 390 -722 718q-411 445 -474 638v87q0 114 159 151
q97 22 271 -58l276 -127v1084h-874l-214 283h3820z" />
    <glyph glyph-name="at" unicode="@" horiz-adv-x="2657" 
d="M2482 -359l-282 -137l-898 1315q-611 0 -611 239q0 497 281 497q103 0 139 -53q76 -113 144 -205q19 -26 63 -84q218 101 360 230q224 203 297 482q22 87 22 179q0 255 -170 396q-158 130 -420 130q-232 0 -476 -61l-553 -138h-38l-261 345q224 52 378 80q439 80 738 80
q479 0 820 -245q360 -258 360 -650q0 -57 -16 -142q-131 -665 -828 -1018z" />
    <glyph glyph-name="A" unicode="A" horiz-adv-x="2144" 
d="M2537 2639h-2540l-212 283h2539zM2302 925q-404 -323 -1063 -323q-423 0 -753 264q-352 283 -352 697q0 309 330 515q302 189 685 189q421 0 718 -142q243 -116 435 -367q160 -208 160 -474q0 -231 -160 -359zM2068 1726q-143 253 -654 253q-161 0 -377 -53
q96 -156 388 -540q97 -128 292 -372q103 41 277 155q153 153 153 323q0 74 -31 147q-4 10 -48 87zM1493 943q-115 205 -684 895q-146 -63 -218 -138q-122 -127 -122 -350q0 -199 181 -332q164 -120 377 -120q202 0 466 45z" />
    <glyph glyph-name="B" unicode="B" horiz-adv-x="3373" 
d="M2636 555q-683 -289 -1098 -289q-370 0 -691 173q-346 186 -420 473q-6 23 -6 66q0 196 154 302q-387 303 -387 518q0 403 468 403h1014v438h-1662l-213 283h3552l213 -296h-554v-2763l-370 274v418zM2043 2639v-735h-1164q-340 0 -340 -221q0 -85 74 -164
q36 -39 142 -110q203 88 586 123q98 9 185 9q64 0 182 -18q225 -232 225 -284q-1 -6 -2 -8q-289 -10 -406 -21q-214 -20 -402 -67l-129 -32q-68 -17 -120 -61q-111 -94 -111 -209q0 -172 248 -252q137 -44 319 -44q77 0 160 9q182 20 525 121q401 118 621 246v1714z" />
    <glyph glyph-name="C" unicode="C" horiz-adv-x="4576" 
d="M4815 102q-193 -86 -310 -129q-347 -128 -547 -128q-334 0 -689 219q-379 234 -379 502q0 209 287 319l346 133q117 45 117 89q0 39 -28 89l-121 221q-101 -40 -212 -80q-185 -67 -309 -80q-62 0 -297 36q-112 17 -150 17v-1430l-393 262v943l-1423 -713l-299 270
l1648 753q-476 447 -834 447q-209 0 -520 -93q-97 -29 -277 -97l-260 314q573 172 961 172q246 0 563 -194q222 -136 441 -336v1031h-2055l-213 283h4704l213 -283h-2256v-1124q58 0 173.5 -6.5t173.5 -6.5q137 30 297 123q52 30 138 97l-90 200q-10 22 -10 45q0 35 24 74
q40 63 113 63q380 0 723 -249q52 -38 52 -102q0 -103 -58 -114q-18 -3 -69 -14q-77 -17 -144 -57l261 -488q18 -34 21 -62q0 -17 6 -31q0 -71 -101 -128q-314 -137 -621 -274q-96 -76 -96 -249q0 -101 133 -174q119 -65 250 -65q42 0 100 13q234 52 430 133q41 17 192 89z
" />
    <glyph glyph-name="D" unicode="D" horiz-adv-x="2032" 
d="M2438 1231h-1190v-253q0 -145 -179 -145q-18 0 -60 4q-163 16 -420 202q-267 194 -302 343q-6 26 -6 51q0 130 197 130h372v1076h-830l-213 283h2550l212 -283h-1321v-1089h1190v-319z" />
    <glyph glyph-name="E" unicode="E" horiz-adv-x="2512" 
d="M3199 2639h-1143l-212 283h1143zM3035 1129h-1440v-292q0 -100 -203 -133q-173 24 -440 222q-274 203 -298 340q0 164 223 164h361v368q-375 30 -610 124q-431 172 -473 522q-6 22 -6 62q0 214 200 341q182 115 449 115q378 0 606 -305q191 -255 191 -553v-674h1440v-301
zM1254 1979v125q0 278 -53 412q-82 209 -297 209q-21 0 -42 -2q-346 0 -346 -372q0 -208 298 -306q200 -66 440 -66z" />
    <glyph glyph-name="F" unicode="F" horiz-adv-x="106" 
d="M-1417 3808h139q13 -97 90 -178q130 -137 397 -137q122 0 325 80q124 49 228 129q67 51 107 106h96q0 -160 -26 -226q-33 -82 -149 -186q-133 -118 -251 -160q-176 -62 -298 -62q-326 0 -504 182q-164 169 -164 336q0 36 10 116zM-743 4162l235 -186l-235 -191l-228 191z
" />
    <glyph glyph-name="G" unicode="G" horiz-adv-x="1588" 
d="M2010 1798l-1075 -1q-246 0 -306 -6q-471 -47 -471 -269q0 -123 271 -358q255 -221 342 -221q234 0 234 128v342q31 3 156 2l849 -6v389zM-129 2922l212 -283h1927l-191 283h-1948z" />
    <glyph glyph-name="H" unicode="H" horiz-adv-x="2318" 
d="M2901 2639h-2876l-213 283h2875zM2857 1722h-1249q154 -127 234 -212q240 -254 240 -430q0 -243 -198 -370q-167 -108 -424 -108q-334 0 -706 315q-328 277 -517 579l-201 319l239 84q148 -324 265 -486q352 -488 786 -488q378 0 378 324q0 135 -240 340
q-201 172 -414 280l21 128h1786v-275z" />
    <glyph glyph-name="I" unicode="I" horiz-adv-x="2374" 
d="M3053 2645l-728 2l-213 283l805 -1zM3240 1772q-220 -141 -489 -230q-338 -112 -659 -112q-418 0 -744 178l-453 -212q-355 -166 -355 -421q0 -363 568 -363q131 0 282 57q52 20 123 57q-109 159 -126 253q-9 52 -13 102q-8 110 244 110q177 0 344 -110
q187 -124 187 -292q0 -133 -78 -196q-106 -52 -154 -83l435 -633l-281 -98l-357 656q-108 -30 -154 -40q-182 -40 -350 -40q-441 0 -766 257q-302 239 -302 518q0 244 228 394q31 21 293 155l206 106q-257 134 -356 226q-196 181 -196 439q0 242 228 396q211 143 510 143
q392 0 670 -226q260 -212 260 -499q0 -204 -149 -346q-79 -75 -282 -182q104 -42 150 -57q113 -36 197 -36q31 5 47 5q504 56 1089 403zM1625 2383q0 346 -358 346h-52q-44 -10 -64 -10q-420 -52 -420 -412q0 -186 144 -305q70 -58 228 -129q232 101 298 146
q224 153 224 364z" />
    <glyph glyph-name="J" unicode="J" horiz-adv-x="1645" 
d="M2385 2639h-2327l-213 283h2327zM2255 1147q-547 -465 -1079 -465q-406 0 -710 222q-336 245 -336 637q0 686 1026 686q238 0 476 -110q89 -41 192 -116l383 -584zM2047 1403v89q-330 412 -834 412q-807 0 -807 -531q0 -149 209 -284q198 -128 381 -128q329 0 679 190
q165 89 372 252z" />
    <glyph glyph-name="K" unicode="K" horiz-adv-x="1650" 
d="M2122 1204q-190 -123 -347 -190q-258 -110 -471 -110q-54 4 -81 4q-308 0 -629 229q-332 237 -332 488v1014h-259l-213 283h2315l213 -283h-1684v-1084q0 -288 287 -346q64 -13 149 -13q241 0 514 124q200 91 378 226z" />
    <glyph glyph-name="L" unicode="L" horiz-adv-x="1278" 
d="M1640 2639h-729v-2763l-371 274v2489h-824l-212 283h1116q-143 474 -208 594q-228 420 -648 420q-516 0 -516 -429q0 -107 43 -217q8 -21 22 -40l-336 18q-36 64 -52 102q-53 128 -53 247q0 629 866 629q548 -44 844 -602q40 -74 250 -722h595z" />
    <glyph glyph-name="M" unicode="M" horiz-adv-x="1196" 
d="M891 2271l-377 -363l-378 363l378 368zM891 589l-377 -367l-378 367l378 368z" />
    <glyph glyph-name="N" unicode="N" horiz-adv-x="2451" 
d="M3204 2639h-3209l-212 283h3209zM2978 1661q-198 124 -494 124q-278 0 -572 -399q-90 -122 -245 -403l-341 173q51 79 96 150q101 160 101 182q-111 109 -228 190q-205 141 -350 141q-512 0 -512 -503q0 -320 320 -657q227 -240 595 -464q284 -173 319 -173l-118 -177
q-34 0 -387 239q-426 288 -717 598q-394 421 -394 766q0 327 231 500q207 156 545 156q329 0 558 -182q201 -217 265 -274q97 140 282 251q230 138 473 138q333 0 573 -168v-208z" />
    <glyph glyph-name="O" unicode="O" horiz-adv-x="2352" 
d="M2527 2639h-547v-753h-802q-400 0 -521 -22q-215 -39 -215 -158q0 -13 2 -28q0 -368 287 -368q143 0 420 71t420 71q169 0 361 -172q223 -200 223 -456q0 -299 -319 -509q-217 -143 -514 -213l785 -668l-201 -173l-866 779q-45 0 -133.5 -6.5t-133.5 -6.5
q-204 0 -372 103q-185 113 -185 278q0 122 113 194q98 62 227 62q181 0 340 -155q29 -29 144 -137q303 44 513 151q283 144 283 358q0 24 -6 53q-40 195 -137 195q-50 -6 -200 -33l-215 -38q-345 -61 -430 -61q-287 0 -521 296q-207 261 -207 487q0 279 261 358
q161 49 702 49h530v452h-1602l-213 283h2517z" />
    <glyph glyph-name="P" unicode="P" horiz-adv-x="2514" 
d="M2711 -532q-74 -125 -191 -273q-45 -58 -111 -129l-405 275l219 230q0 77 -166 212q-252 206 -679 447l-1057 598q-58 33 -87 133q0 13 -9 40v1638h-219l-212 283h2684l213 -283h-628v-1439q0 -129 -21 -177q-39 -85 -144 -85h-540l-267 298h451q138 0 138 137v1266
h-1063v-1576q0 -145 81 -199q381 -257 1413 -784q304 -155 468 -319q143 -142 143 -243v-27q-9 -11 -11 -23z" />
    <glyph glyph-name="Q" unicode="Q" horiz-adv-x="3019" 
d="M1282 1694q-151 0 -269 -111t-118 -261q0 -56 20 -110q116 -308 398 -615q106 -115 267 -245l-165 -154q-17 0 -181 159q-543 526 -691 1036q-20 70 -20 138q0 70 37 163h-293l-244 329h2325v566h-2365l-213 283h3230l213 -283h-495v-2763l-370 275l-2 1593h-1064z" />
    <glyph glyph-name="R" unicode="R" horiz-adv-x="2225" 
d="M2709 2639h-2651l-213 283h2651zM2940 1143q-742 -532 -1280 -532q-358 0 -644 168q-307 180 -378 470q-15 64 -15 110q0 274 261 399h-733l-164 283h2326l207 -283h-812q-235 -22 -416 -119q-263 -142 -276 -399q-2 -19 -4 -76q-10 -306 409 -305q10 1 63 5
q318 23 685 221q91 49 606 381z" />
    <glyph glyph-name="S" unicode="S" horiz-adv-x="2957" 
d="M1945 1337v252q-311 315 -749 315q-808 0 -808 -531q0 -151 207 -285q195 -127 384 -127q458 0 966 376zM3540 1465q-38 183 -349 183q-312 0 -876 -395v-1390l-370 275v792q-398 -248 -786 -248q-407 0 -710 222q-337 245 -337 637q0 686 1026 686q355 0 669 -226
l138 -209v834q39 0 -933 6l-972 6l-212 284h3702l226 -296h-1441v-965q439 261 802 261q284 0 662 -457q-235 -16 -239 0z" />
    <glyph glyph-name="T" unicode="T" horiz-adv-x="1815" 
d="M2248 2639h-2253l-212 283h2252zM2096 1745h-1269q-171 0 -284 -150q-98 -130 -98 -279q0 -258 318 -643q43 -52 451 -514l-164 -142l-478 509q-440 469 -510 904q-6 37 -6 98q0 269 256 424q198 120 398 120h1386v-327z" />
    <glyph glyph-name="U" unicode="U" horiz-adv-x="1353" 
d="M2133 2639h-1036v-1523q0 -178 -265 -178q-294 93 -623 545q-15 36 -15 67q0 111 138 111h356v978h-668l-213 283h2113z" />
    <glyph glyph-name="V" unicode="V" horiz-adv-x="2981" 
d="M3571 1178q-216 -168 -477 -261q-214 -76 -410 -76q-397 0 -666 180q-310 208 -310 587q0 650 981 650q185 0 378 -80q70 -29 160 -84l344 -461v-455zM3540 522q-298 -136 -488 -203q-595 -209 -1074 -209q-416 0 -876 324q-377 265 -687 656q-279 352 -286 495
q-5 91 10 190q10 63 165 63q84 0 383 -133q13 37 37 120q38 133 43 212q16 77 16 243q0 226 -22 359h-780l-212 283h3777l212 -283h-2561v-978q0 -92 -70 -191q-154 -218 -397 -327q210 -308 435 -484q352 -274 776 -274q397 0 1036 240q217 81 563 243v-346zM3514 1568
q-108 134 -272 225q-237 133 -531 133q-727 0 -727 -483q0 -150 176 -243q152 -80 343 -80q292 0 606 169q179 96 405 279z" />
    <glyph glyph-name="W" unicode="W" horiz-adv-x="2225" 
d="M2689 2639h-748l-213 283h749zM2562 965q-199 -153 -355 -234q-460 -239 -913 -239q-344 0 -665 216q-361 243 -361 563q0 199 191 328q81 55 302 133q-255 209 -349 309q-235 251 -235 469q0 289 250 437q206 122 515 122q258 0 437 -121q206 -139 206 -384
q0 -201 -116 -323q-77 -81 -282 -191q-81 -43 -240 -79l-143 -32q0 -27 69 -66q103 -59 122 -75l362 21h376l208 -309q-303 26 -388 26q-893 0 -893 -456q0 -161 160 -248q137 -75 339 -75q24 0 70 4.5t70 4.5q451 58 733 257l377 266l63 57q17 15 37 36zM1303 2626
q-60 177 -319 177q-53 0 -111 -18q-281 -87 -281 -358q0 -94 43 -226q18 -55 46 -102q26 -9 60 -9q44 0 103 16q252 69 396 234q79 91 79 197q0 43 -16 89z" />
    <glyph glyph-name="X" unicode="X" horiz-adv-x="2421" 
d="M2766 1208q-183 171 -749 171q-69 0 -206.5 -3t-206.5 -3q-336 0 -604 -160q-299 -178 -299 -447q0 -517 1089 -819q321 -89 383 -89l-53 -194q-92 0 -468 114q-1339 407 -1339 1086q0 256 256 491q-351 257 -351 549q0 166 146 262q127 84 301 84h1242v389h-1841
l-212 283h2829l212 -283h-658v-677h-1451q-260 0 -260 -164q0 -124 85 -217q35 -39 133 -106q175 69 376 100q550 84 687 84q438 0 959 -135q41 -186 41 -273q0 -55 -20 -55q-12 3 -21 12z" />
    <glyph glyph-name="Y" unicode="Y" horiz-adv-x="2294" 
d="M3032 2639h-910l-243 283h940zM2708 1191q-214 -226 -340 -319q-426 -318 -866 -318q-331 0 -660 217q-242 159 -445 402q-63 75 -166 217l135 36q262 70 487 173q84 39 192 93q-904 282 -904 792q0 254 225 400q194 127 462 127q372 0 674 -186q340 -209 340 -531
q0 -51 -5 -84q-53 -368 -325 -629q-197 -188 -478 -297q-193 -75 -250 -75q0 -147 117 -248q143 -124 403 -124q91 0 155 8q403 51 861 435q143 120 388 381v-470zM1486 2307q0 452 -388 452q-48 0 -112 -13q-397 -80 -397 -337q0 -244 327 -443q110 -67 330 -151
q240 140 240 492z" />
    <glyph glyph-name="Z" unicode="Z" horiz-adv-x="2238" 
d="M2728 2639h-1082q380 -249 380 -780q0 -394 -344 -735q-258 -255 -569 -376l772 -765l-234 -142l-735 810q-42 -13 -84 -13q-48 0 -287 44q-172 32 -255 116q-63 63 -123 225q-9 26 -9 71q0 203 239 203q32 -4 48 -4q142 -22 243 -110q106 -120 165 -178q373 111 601 404
q-361 75 -628 216q-403 213 -525 549q-27 72 -27 142q0 181 171 323h-507l-212 283h2790zM1677 2005q0 257 -110 425q-141 213 -423 213q-174 0 -280.5 -109.5t-106.5 -283.5q0 -19 7 -63q77 -470 828 -619q25 70 42 141q43 178 43 296z" />
    <glyph glyph-name="bracketleft" unicode="[" horiz-adv-x="117" 
d="M212 -1164q-127 -36 -239 -57q-324 -62 -611 -62q-329 0 -592 179q-281 192 -349 502q-5 22 -5 54q0 230 495 416q167 63 499 138l372 -275q-352 -66 -521 -116q-521 -154 -521 -363q-3 -19 -3 -39q0 -102 96 -175q113 -86 278 -86q39 4 54 4q319 32 569 110
q59 20 238 75l16 5z" />
    <glyph glyph-name="backslash" unicode="\" horiz-adv-x="0" 
d="M929 -921l-90 -137q-101 91 -212 186q-225 191 -532 380q-358 220 -653 283q-89 19 -198 19q-132 0 -222 -13q-15 0 -48 -14l-277 359q28 8 48 8q133 23 266 23h132q43 -10 92 -18q368 -64 801 -337q357 -225 639 -486q24 -23 254 -253z" />
    <glyph glyph-name="bracketright" unicode="]" horiz-adv-x="220" 
d="M-730 2973q-122 182 -287 386q-201 250 -483 371q-33 14 -81 18q-20 0 -42 5q-123 0 -249 -71q-80 114 -118 177q-121 204 -121 288q0 33 10 44q34 40 117 40q187 0 441 -142q468 -262 1052 -1116h-239z" />
    <glyph glyph-name="asciicircum" unicode="^" horiz-adv-x="2742" 
d="M2579 -509l-262 -80l-451 885q-123 -30 -223 -30q-22 0 -66 4.5t-66 4.5q-497 62 -840 314q-377 277 -377 660q0 118 128 257q85 93 207 172q-174 127 -218 164q-281 231 -281 448q0 342 377 482q271 101 770 101q164 0 462 -26q91 -8 266 -27l176 -354q-89 12 -219 23
q-328 27 -489 27h-119q-17 0 -125 -10q-389 -36 -536 -97q-160 -66 -203 -235q-5 -19 -5 -57q0 -142 165 -235q33 -19 240 -124q178 67 626 67q314 0 558 -10l127 -332h-332q-135 0 -261 2l-188 3h-164q-154 0 -298 -89q-184 -114 -212 -323q-5 -35 -5 -79q0 -228 207 -351
q171 -101 447 -101q119 0 281 40q0 17 -54 118l-71 132q-19 36 -19 82q0 133 159 133q57 0 139 -32q117 -45 366 -128q162 -72 162 -177q0 -14 -2 -27q-42 -224 -255 -318z" />
    <glyph glyph-name="underscore" unicode="_" horiz-adv-x="1379" 
d="M53 -296l117 -112q810 524 1100 1395q64 191 64 536q0 344 -64 536q-178 536 -590 970q-230 242 -510 425l-117 -111q162 -135 312 -301q245 -271 352 -526q195 -466 195 -993t-195 -991q-179 -424 -664 -828z" />
    <glyph glyph-name="grave" unicode="`" horiz-adv-x="3669" 
d="M3918 2639h-728v-2763l-372 274v1049q-55 -3 -85 -3q-118 0 -325 26q-35 -311 -353 -493q-285 -163 -677 -163q-398 0 -761 245q-386 261 -547 579l-9 19l159 154q478 -708 1078 -708q775 0 775 628q0 342 -376 342q-250 0 -770 -315l-266 265q328 275 738 275
q470 0 728 -217q98 -83 250 -345q121 -5 233 -5q72 0 208 25v1131h-2797l-212 283h3896z" />
    <glyph glyph-name="a" unicode="a" horiz-adv-x="3019" 
d="M1528 943q-126 210 -686 895q-339 -146 -339 -488q0 -212 177 -339q159 -113 380 -113q202 0 468 45zM2165 1387v205q0 21 -64 134q-143 253 -653 253q-159 0 -378 -53q183 -296 680 -912q140 55 262 152q153 121 153 221zM3246 2639h-708v-2763l-373 274v661
q-363 -209 -892 -209q-424 0 -753 264q-352 282 -352 697q0 310 329 516q300 188 685 188q611 0 983 -328v700h-2137l-213 283h3218z" />
    <glyph glyph-name="b" unicode="b" horiz-adv-x="2807" 
d="M3019 2639h-711v-757h-1048q-180 0 -318 -53q-244 -94 -244 -323q-5 -36 -5 -54q0 -307 273 -492q240 -163 561 -163q230 0 419 88l-154 231q-31 47 -31 93q0 124 191 124q56 0 105 -17q242 -84 330 -129q202 -103 202 -204q0 -115 -74 -191q-16 -13 -144 -101l500 -713
l-203 -115l-525 762q-68 -22 -139 -36q-174 -35 -286 -35q-520 0 -916 296q-433 325 -433 828q0 320 350 443q188 66 473 66h738v452h-1891l-213 283h2980z" />
    <glyph glyph-name="c" unicode="c" horiz-adv-x="4206" 
d="M4375 2639h-555v-2763l-371 274v1179q-86 -33 -164 -58q-109 -35 -277 -35q-151 0 -304 74q-57 28 -223 120q34 -94 67 -296q8 -43 8 -111q0 -298 -282 -498q-268 -189 -632 -189q-435 0 -844 293q-325 233 -548 540q-18 25 -192 297l219 102q57 -104 144 -235
q161 -244 429 -439q324 -235 696 -235q265 0 461 142q219 157 219 412q0 275 -228 448q-83 -29 -178 -56q-56 -15 -148 -36l-30 -6q-257 -55 -585 -88q-84 97 -121 168l-96 182q280 97 536 97h409q324 113 324 336q0 186 -135 299q-126 105 -316 105q-306 0 -882 -209
l-244 367q141 50 228 72q288 74 500 74q439 0 819 -253q360 -240 360 -552q0 -199 -254 -412q57 -39 248 -124q258 -115 457 -115q212 0 357 71l202 101v957h-638l-212 283h1563z" />
    <glyph glyph-name="d" unicode="d" horiz-adv-x="2921" 
d="M2103 1550v1089h-1009v-1089h1009zM3169 2639h-695v-2763l-371 274v1081h-1009v-253q0 -145 -179 -145q-18 0 -60 4q-159 15 -420 204q-270 196 -302 341q-7 33 -7 51q0 130 198 130h372v1076h-618l-213 283h3091z" />
    <glyph glyph-name="e" unicode="e" horiz-adv-x="3328" 
d="M1233 1979v125q0 621 -350 621q-388 0 -388 -374q0 -195 266 -295q205 -77 472 -77zM3631 2639h-694v-2763l-373 274v979h-990v-292q0 -100 -203 -133q-192 27 -454 234q-284 225 -284 328q0 164 223 164h361v368q-1089 88 -1089 708q0 215 200 341q183 115 449 115
q363 0 593 -286q204 -254 204 -572v-674h990v1209h-823l-213 283h1890z" />
    <glyph glyph-name="f" unicode="f" horiz-adv-x="1164" 
d="M1588 2639h-743v-2763l-371 274v2489h-634l-213 283h1749z" />
    <glyph glyph-name="g" unicode="g" horiz-adv-x="2937" 
d="M1981 1409l-850 6q-125 1 -156 -2v-342q0 -128 -234 -128q-87 0 -342 221q-271 235 -271 358q0 222 472 269q58 6 306 6l1075 1v841h-1927l-213 283h3121l214 -283h-823v-2763l-372 274v1259z" />
    <glyph glyph-name="h" unicode="h" horiz-adv-x="3295" 
d="M3468 2639h-628v-2763l-373 274v1572h-886q474 -393 474 -642q0 -243 -198 -370q-168 -108 -425 -108q-338 0 -716 322q-290 247 -507 572q-1 2 -200 319l239 84q441 -974 1051 -974q378 0 378 324q0 142 -250 350q-193 161 -404 270l20 128h1424v642h-2496l-212 283
h3497z" />
    <glyph glyph-name="i" unicode="i" horiz-adv-x="1663" 
d="M2057 1169q-397 -265 -753 -265q-54 4 -81 4q-307 0 -627 229q-334 238 -334 488v1014h-202l-212 283h2078l203 -283h-1495l1316 -1111zM1781 1422l-1147 965v-832q0 -288 287 -346q64 -13 149 -13q328 0 711 226z" />
    <glyph glyph-name="j" unicode="j" horiz-adv-x="2840" 
d="M2123 1321v290q-306 293 -728 293q-807 0 -807 -531q0 -149 207 -284q197 -128 383 -128q451 0 945 360zM3088 2639h-595v-2763l-370 274v770q-399 -238 -765 -238q-406 0 -710 222q-336 245 -336 637q0 686 1026 686q353 0 669 -226l116 -176v814h-2180l-213 283h3147z
" />
    <glyph glyph-name="k" unicode="k" horiz-adv-x="2580" 
d="M1803 1411v1228h-1125v-1084q0 -359 435 -359q323 0 690 215zM2790 2639h-615v-2763l-372 274v858q-248 -104 -456 -104q-13 0 -40 2t-40 2q-306 0 -629 230q-332 237 -332 487v1014h-251l-214 283h2736z" />
    <glyph glyph-name="l" unicode="l" horiz-adv-x="871" 
d="M2752 3511l-5 -226q-915 669 -1542 669q-342 0 -562 -140q-261 -166 -261 -489q0 -122 64 -239q35 -65 116 -164h515l212 -283h-663v-2763l-371 274v2489h-457l-213 283h675q-102 97 -170 217q-86 152 -86 284q0 398 315 611q272 185 689 185q430 0 873 -180
q363 -148 626 -342q61 -46 245 -186z" />
    <glyph glyph-name="m" unicode="m" horiz-adv-x="1334" 
d="M1546 2639h-1924l-212 283h1924zM1121 1173q0 -307 -271 -659q-84 -109 -271 -292l-324 287q134 121 212 213q288 339 329 567q22 37 22 120q0 239 -356 239q-265 0 -697 -275q-178 -113 -403 -283v425q574 407 1026 407q301 0 526 -254q207 -235 207 -495z" />
    <glyph glyph-name="n" unicode="n" horiz-adv-x="3702" 
d="M3903 2639h-1067v-465q326 -126 471 -405q82 -157 82 -343q0 -130 -59 -275q-121 -299 -510 -585q-117 -86 -360 -225l-339 221q194 109 333 200q375 245 526 455q102 142 102 306q0 408 -453 408q-69 0 -128 -13q-240 -53 -552 -368q-94 -95 -265 -310l-340 226l202 222
q-100 91 -170 131q-158 89 -356 89q-204 0 -331 -145q-115 -131 -115 -306q0 -32 5 -67q49 -356 482 -717q139 -116 437 -297l-181 -137q-44 20 -213 137q-248 172 -441 359q-461 446 -461 860q0 311 236 485q212 156 534 156q244 0 452 -142q88 -60 276 -252
q337 326 765 372v425h-2389l-214 283h3828z" />
    <glyph glyph-name="o" unicode="o" horiz-adv-x="2840" 
d="M1972 1444v1195h-946q330 -508 330 -695q0 -135 -218 -214l-404 -148q-218 -80 -218 -152q0 -314 489 -314q399 0 967 328zM3019 2639h-675v-2763l-372 274v915q-372 -197 -664 -197q-450 0 -775 207q-354 226 -458 643l441 124q237 67 298 98q159 80 159 212
q0 146 -63 275q-74 153 -207 212h-733l-213 283h3049z" />
    <glyph glyph-name="p" unicode="p" horiz-adv-x="2905" 
d="M3099 2639h-1127q138 -186 282 -368q133 -207 133 -332q0 -110 -186 -213q-59 -33 -214 -83q394 -270 462 -341q160 -165 160 -372q0 -302 -312 -482q-270 -156 -618 -156q-385 0 -797 283q-333 229 -572 532l-223 283l253 85q182 -285 319 -425q415 -425 883 -425
q273 0 461 93q223 110 223 332q0 53 -5 79q-27 151 -201 266q-70 46 -313 155q-138 -35 -357 -71q-53 -9 -217 -22q-48 0 -128 -9q-17 15 -59 54q-115 107 -175 211q-5 11 -37 67q92 13 223 26q310 32 483 32q214 0 365 99q137 90 137 215q0 169 -151 345q-55 63 -153 142
h-1611l-213 283h3072z" />
    <glyph glyph-name="q" unicode="q" horiz-adv-x="3002" 
d="M2570 -120l-393 262v943l-1423 -713l-299 270l1648 753q-479 447 -834 447q-203 0 -520 -93q-101 -30 -277 -97l-260 314q573 172 961 172q426 0 1004 -530v1031h-2189l-212 283h3282l214 -283h-702v-2759z" />
    <glyph glyph-name="r" unicode="r" horiz-adv-x="3539" 
d="M3790 2639h-664v-2763l-373 274v841q-597 -380 -1057 -380q-363 0 -650 170q-304 180 -371 468q-15 62 -15 110q0 274 261 399h-733l-165 283h2327l206 -283h-812q-194 0 -415 -119q-281 -151 -281 -475q0 -305 409 -305q311 0 694 198q127 66 602 371v1211h-2796
l-213 283h3833z" />
    <glyph glyph-name="s" unicode="s" horiz-adv-x="4222" 
d="M2069 1337v252q-311 315 -748 315q-809 0 -809 -531q0 -151 208 -285q196 -127 383 -127q459 0 966 376zM4432 2626h-1992v-965q440 261 802 261q304 0 527 -253q207 -234 207 -496q0 -422 -543 -951l-324 287q133 120 213 213q239 281 297 455q4 11 31 112q22 79 22 120
q0 239 -355 239q-312 0 -877 -395v-1390l-371 275v792q-396 -248 -785 -248q-406 0 -710 222q-338 246 -338 637q0 686 1026 686q357 0 670 -226l137 -209v834h-487l-10 13h-1614l-214 283h4461z" />
    <glyph glyph-name="t" unicode="t" horiz-adv-x="2677" 
d="M2957 2639h-694v-2763l-371 274v1595h-953q-170 0 -283 -149q-99 -130 -99 -280q0 -233 290 -607q40 -52 480 -550l-165 -142q-564 603 -643 704q-352 451 -352 807q0 249 208 404q189 140 446 140h1071v567h-1839l-212 283h2904z" />
    <glyph glyph-name="u" unicode="u" horiz-adv-x="2693" 
d="M2902 2639h-606v-2763l-370 274v2489h-818v-1523q0 -178 -266 -178q-260 81 -538 435q-21 28 -85 110q-15 28 -15 67q0 111 139 111h355v978h-630l-214 283h2835z" />
    <glyph glyph-name="v" unicode="v" horiz-adv-x="4092" 
d="M3369 1398v368q-255 160 -576 160q-728 0 -728 -483q0 -150 177 -243q151 -80 343 -80q378 0 784 278zM3369 753v246q-315 -158 -603 -158q-398 0 -666 180q-311 208 -311 587q0 650 982 650q264 0 536 -164l62 -81v626h-2091v-978q0 -139 -159 -301q-141 -143 -309 -217
q520 -758 1212 -758q514 0 1347 368zM4265 2639h-523v-2763l-373 274v261q-713 -301 -1311 -301q-425 0 -897 338q-356 255 -664 642q-288 362 -288 546q0 122 17 150q31 52 159 52q81 0 383 -133q96 271 96 575q0 226 -23 359h-822l-212 283h4246z" />
    <glyph glyph-name="w" unicode="w" horiz-adv-x="2889" 
d="M958 2803q-53 0 -112 -18q-280 -86 -280 -358q0 -177 88 -328q27 -9 60 -9q45 0 104 16q185 50 320 160q155 126 155 271q0 266 -335 266zM2112 1096l-3 1543h-195l-212 283h1262l214 -283h-695v-2763l-373 274v568q-379 -235 -736 -235q-46 0 -106 9q-387 58 -682 254
q-344 229 -344 525q0 181 148 295q104 79 346 166q-277 224 -386 348q-200 226 -200 430q0 289 251 437q205 122 515 122q257 0 437 -121q206 -139 206 -384q0 -185 -104 -307q-86 -100 -294 -207q-252 -86 -383 -111q103 -96 191 -141l362 21h376l207 -309q-296 26 -387 26
q-893 0 -893 -456q0 -161 160 -248q137 -75 339 -75q600 0 979 339z" />
    <glyph glyph-name="x" unicode="x" horiz-adv-x="2693" 
d="M2872 2639h-659v-677h-1449q-262 0 -262 -164q0 -123 87 -217q38 -42 132 -106q388 154 717 154q337 0 611 -150q339 -186 339 -514q0 -247 -296 -394q-99 -49 -298 -97l-250 265q176 44 266 85q266 121 266 292q0 257 -494 257q-346 0 -611 -164q-294 -182 -294 -443
q0 -516 1090 -819q320 -89 383 -89l-53 -194q-93 0 -467 114q-534 163 -872 386q-468 309 -468 700q0 162 91 305q54 85 164 186q-350 261 -350 549q0 164 146 261q128 85 300 85h1243v389h-1823l-214 283h2813z" />
    <glyph glyph-name="y" unicode="y" horiz-adv-x="3328" 
d="M1380 2307q0 452 -388 452q-46 0 -111 -13q-399 -79 -399 -337q0 -353 658 -594q240 137 240 492zM3514 2639h-583v-2763l-373 274v997q-578 -593 -1163 -593q-662 0 -1270 836q11 4 134 36q329 86 679 266q-903 283 -903 792q0 257 223 402q192 125 463 125
q390 0 690 -193q324 -208 324 -524q0 -51 -5 -84q-95 -651 -801 -926q-90 -35 -251 -75q0 -372 519 -372q632 0 1361 778v1024h-823l-212 283h1779z" />
    <glyph glyph-name="z" unicode="z" horiz-adv-x="3376" 
d="M1687 2639h-62q383 -249 383 -780q0 -394 -346 -735q-258 -255 -568 -376l771 -765l-235 -142l-734 810q-42 -13 -84 -13q-45 0 -288 44q-170 31 -254 116q-66 67 -121 225q-12 22 -12 71q0 203 240 203q31 -4 48 -4q143 -22 243 -110q107 -120 165 -178q374 111 601 404
q-361 75 -628 216q-403 213 -525 549q-28 76 -28 142q0 181 172 323h-444l-213 283h1706zM1657 2005q0 255 -111 425q-141 213 -420 213q-183 0 -292 -124q-97 -111 -97 -269q0 -26 6 -63q75 -470 828 -619q26 70 43 141q43 178 43 296zM3640 2652h-758v-2763l-372 274v2489
h-823l-213 283h1952z" />
    <glyph glyph-name="braceleft" unicode="{" horiz-adv-x="125" 
d="M-369 2944q-1117 179 -1117 690q0 124 77 265q62 115 258 213q225 113 475 110q18 7 82 7q79 0 230 -11l198 -380q-139 26 -282 30q-175 5 -118 5q-420 0 -577 -281q-86 -105 -25 -227q36 -72 205 -137q36 -10 66 -20q168 -56 561 -135q26 -2 26 -24q0 -35 -59 -105z" />
    <glyph glyph-name="bar" unicode="|" horiz-adv-x="252" 
d="M-14 757l-1945 -952l-350 274l2140 974z" />
    <glyph glyph-name="braceright" unicode="}" horiz-adv-x="241" 
d="M-437 2983q-111 374 -279 846q-91 255 -247 368q-67 48 -213 48q-90 0 -164 -17q-43 109 -75 208q-74 236 -74 327q0 34 6 45q31 57 95 57q123 0 308 -146q135 -106 239 -235q229 -283 415 -797q118 -325 202 -704h-213zM-809 2983q-122 182 -286 386q-202 250 -484 371
q-33 14 -80 18q-21 0 -42 5q-124 0 -250 -71q-80 114 -118 177q-121 204 -121 288q0 33 10 44q35 40 117 40q187 0 441 -142q469 -262 1052 -1116h-239z" />
    <glyph glyph-name="asciitilde" unicode="~" horiz-adv-x="2540" 
d="M3328 2639h-3294l-212 283h3293zM3093 1284q-69 -28 -270 -59q-189 -29 -283 -29q-117 0 -324 26q-25 -228 -233 -407q-289 -249 -797 -249q-400 0 -761 245q-429 292 -547 579l-11 19l160 154q159 -239 277 -354q366 -354 802 -354q775 0 775 628q0 342 -376 342
q-65 0 -134 -19q-175 -48 -408 -167q-68 -35 -228 -129l-266 265q112 93 190 137q250 138 548 138q476 0 728 -217q93 -80 250 -345q102 -5 170 -5h64q32 5 48 5q238 24 547 137z" />
    <glyph glyph-name="nonbreakingspace" unicode="&#xa0;" horiz-adv-x="2657" 
 />
    <glyph glyph-name="exclamdown" unicode="&#xa1;" horiz-adv-x="2040" 
d="M1112 1740q642 -362 642 -743q0 -230 -217 -395q-154 -117 -362 -177l845 -757l-201 -164l-899 885q-95 -17 -175 -17q-232 0 -419 84q-229 103 -256 283q0 135 99 219q93 78 231 78q161 0 320 -119q113 -86 180 -191q461 80 461 332q0 382 -695 682h-489l-245 328h2383
v-328h-1203zM2392 2639h-2395l-212 283h2395z" />
    <glyph glyph-name="cent" unicode="&#xa2;" horiz-adv-x="4076" 
d="M4167 -270l-256 -119l-372 562q-223 -170 -414 -270q-330 -173 -584 -173q-467 0 -701 221q-155 146 -187 351q-175 -50 -355 -50q-421 0 -770 217q-372 231 -372 545q0 262 240 424q212 143 487 143q273 0 459 -137q195 -143 195 -368q0 -223 -205 -353
q-176 -112 -412 -112l-132 14q251 -160 606 -160q53 0 156.5 20t156.5 20q48 55 85 97q121 135 272 193q111 43 147 60q-207 119 -360 314q-198 252 -198 536q0 315 256 460q180 102 398 102h781v372h-3294l-212 283h4441l211 -283h-811v-673h-1116q-179 0 -273 -150
q-77 -121 -77 -284q0 -248 243 -452q233 -195 485 -195q226 0 403 80l-143 231q-37 48 -37 93q0 120 175 120q47 0 106 -19q255 -82 340 -124q198 -98 198 -203q0 -124 -96 -204q-66 -55 -191 -102zM1282 1094q0 131 -120 210q-104 69 -242 69q-197 0 -318 -129
q-95 -101 -95 -190q0 -99 25 -150q286 -103 368 -103q141 0 254 74q128 84 128 219zM3381 425l-154 266q-46 0 -135.5 -22.5t-135.5 -22.5q-61 0 -181 22.5t-181 22.5q-191 -66 -388 -186q-287 -175 -270 -315q0 -194 356 -194q289 0 689 199q82 41 400 230z" />
    <glyph glyph-name="sterling" unicode="&#xa3;" horiz-adv-x="2152" 
d="M2623 1143q-245 -164 -382 -239q-451 -245 -761 -245q-386 0 -721 221q-357 235 -357 550q0 203 208 350q70 50 206 106q-186 89 -297 182q-168 140 -250 336q-26 63 -26 138q0 37 9 97h-244l-213 283h2857l214 -283h-1980q-73 -60 -96 -84q-96 -101 -96 -182
q0 -215 175 -332q63 -42 228 -102l330 -4q47 -1 217 -23q67 -9 144 -26l175 -345q-316 88 -595 88q-583 0 -583 -385q0 -163 151 -255q134 -81 338 -81q301 0 855 328q186 110 494 327v-420z" />
    <glyph glyph-name="yen" unicode="&#xa5;" horiz-adv-x="1327" 
d="M1861 2639h-1858l-213 283h1860zM2117 1589q-114 -50 -223 -83q-294 -89 -568 -89q-332 0 -606 102q-347 129 -420 380q273 -86 532 -159q184 -52 535 -52q196 0 494 70q114 27 256 75v-244z" />
    <glyph glyph-name="section" unicode="&#xa7;" horiz-adv-x="2856" 
d="M2247 -790q-167 -82 -269 -120q-326 -122 -581 -122q-294 0 -548 161q-276 175 -276 413q0 474 419 474h609v352h-13q-18 0 -53.5 -2.5t-53.5 -2.5q-484 0 -837 285q-336 271 -415 681q-11 56 -11 97q0 337 404 429q285 65 684 124l358 53v607h-1666l-213 283h3056
l213 -283h-1020v-854l-409 -63q-446 -70 -786 -150q-123 -29 -214 -130q-94 -105 -94 -229q0 -263 248 -423q230 -148 555 -148q88 0 155 9q281 38 641 120q140 32 304 74l206 -291q-196 -63 -322 -93q-238 -56 -459 -78v-560h-781q-155 0 -237 -119q-71 -101 -64 -237
q7 -141 179 -227q152 -76 330 -76q215 0 542 124q107 40 283 122z" />
    <glyph glyph-name="copyright" unicode="&#xa9;" horiz-adv-x="4141" 
d="M1878 1411v1228h-1126v-1084q0 -359 436 -359q322 0 690 215zM3839 1173q0 -421 -542 -951l-324 287q213 191 368 417q195 282 195 483q0 239 -355 239q-324 0 -931 -433v-1339l-372 274v858q-249 -104 -456 -104q-14 0 -40.5 2t-40.5 2q-306 0 -629 230
q-332 237 -332 487v1014h-317l-213 283h4256l213 -283h-2069v-1011q472 294 855 294q301 0 527 -255q207 -234 207 -494z" />
    <glyph glyph-name="ordfeminine" unicode="&#xaa;" horiz-adv-x="3067" 
d="M2494 1830l246 -194l-240 -200l-239 200zM3253 2639h-1095v-721h-941q-334 0 -434 -32q-154 -49 -154 -221q0 -84 66 -184q74 -112 167 -112q168 0 504 28.5t505 28.5q265 0 452 -158q197 -167 197 -427q0 -303 -314 -503q-288 -183 -664 -183q-380 0 -797 226
q-330 179 -595 420q-36 33 -228 230l149 72q85 -91 175 -178q195 -189 467 -336q334 -181 643 -181q635 0 856 460q26 55 26 102q0 159 -154 159q-144 0 -334 -18q-506 -48 -723 -48q-185 0 -426 221q-276 253 -276 531q0 257 202 346q129 57 394 57h838v421h-1696l-209 283
h3186z" />
    <glyph glyph-name="guillemotleft" unicode="&#xab;" horiz-adv-x="0" 
d="M-2066 -337l1117 793l807 -694l-237 -158l-479 470l-882 -627z" />
    <glyph glyph-name="logicalnot" unicode="&#xac;" horiz-adv-x="0" 
d="M-1409 -137q126 35 218 35q45 0 116 -8q524 -59 518 -372q-8 -360 -533 -355q-352 3 -681 327q-163 161 -163 267h160q25 -139 336 -301q148 -77 338 -94q345 0 345 173q0 142 -256 142q-242 0 -254 -58z" />
    <glyph glyph-name="registered" unicode="&#xae;" horiz-adv-x="1856" 
d="M2276 1196q-256 -149 -382 -204q-284 -124 -517 -124q-450 0 -774 207q-352 225 -458 643l442 124q237 67 298 97q158 78 158 213q0 57 -10 106q-58 292 -259 381h-723l-212 283h2307l214 -283h-1263q44 -61 100 -150q146 -229 219 -465q9 -31 9 -80q0 -160 -462 -311
q-128 -42 -222 -74q-154 -53 -154 -129q0 -314 488 -314q98 0 214 18q230 36 557 203q232 118 430 252v-393z" />
    <glyph glyph-name="degree" unicode="&#xb0;" horiz-adv-x="2970" 
d="M2391 1830l244 -194l-240 -200l-237 200zM3160 2639h-1105v-721h-941q-334 0 -434 -32q-154 -49 -154 -221q0 -84 66 -184q74 -112 167 -112q168 0 504 28.5t505 28.5q265 0 452 -158q197 -167 197 -427q0 -304 -314 -503q-289 -183 -664 -183q-379 0 -797 226
q-328 177 -595 420q-54 49 -229 230l150 72q71 -77 175 -178q195 -189 467 -336q334 -181 643 -181q633 0 855 460q27 57 27 102q0 159 -154 159q-144 0 -334 -18q-506 -48 -724 -48q-184 0 -425 221q-276 253 -276 531q0 257 202 346q129 57 394 57h838v421h-1641l-214 283
h3146zM1292 -575v119q-117 136 -359 136q-367 0 -367 -253q0 -80 97 -141q86 -54 171 -54q149 0 310 90q66 37 148 103zM1336 191v-577l-79 174q-49 36 -87 54q-109 53 -219 53q-467 0 -467 -326q0 -184 150 -300q138 -107 328 -107q184 0 374 129v-382l170 -130v726
q323 249 483 249q162 0 162 -113q0 -40 -10 -57q-26 -207 -494 -406l123 -163q531 225 520 514q-5 128 -95 236q-101 121 -240 121q-199 0 -449 -180v485h-170z" />
    <glyph glyph-name="plusminus" unicode="&#xb1;" horiz-adv-x="2192" 
d="M848 203v687h-813v230h813v682l277 4v-686h828v-230h-828v-682z" />
    <glyph glyph-name="acute" unicode="&#xb4;" horiz-adv-x="3994" 
d="M3947 2922l213 -283h-694v-2763l-372 274v462q-109 -78 -237 -78q-283 0 -487 290q0 -274 -263 -473q-222 -168 -571 -249l786 -668l-201 -173l-866 779q-45 0 -133.5 -6.5t-133.5 -6.5q-206 0 -373 102q-185 113 -185 279q0 122 114 194q97 62 226 62q139 0 276 -100
q48 -35 209 -192q311 46 516 150q279 142 279 359q0 71 -32 148q-42 100 -110 100q-26 0 -197 -31q-558 -101 -648 -101q-276 0 -511 281q-218 260 -218 502q0 276 261 358q155 49 702 49h530v452h-2018l-213 283h4351zM3094 1001v1638h-900v-753h-802q-347 0 -429 -9
q-307 -34 -307 -171q0 -396 289 -396q143 0 420.5 71t420.5 71q228 0 414 -223q170 -203 170 -405q121 -72 266 -72q266 0 458 249z" />
    <glyph glyph-name="paragraph" unicode="&#xb6;" horiz-adv-x="2905" 
d="M2272 1129q0 379 -435 589q-278 -26 -335 -28q-117 -3 -419 -16q-240 -14 -378 -119q-164 -125 -164 -346q0 -324 282 -508q258 -169 657 -169q306 0 530 142q262 166 262 455zM2108 -483q0 -205 -208 -321q-182 -102 -439 -102q-291 0 -574 158q-313 175 -313 403
q0 200 239 307q194 87 455 87q150 0 193 17q78 31 78 131q0 22 -14 96q-511 15 -912 291q-430 295 -430 709q0 691 1181 691q291 0 366 38q80 41 80 170q0 248 -96 447h-1728l-212 283h3114l213 -283h-1063q155 -244 155 -465q0 -241 -133 -368q305 -147 433 -301
q146 -176 146 -451q0 -294 -277 -511q-258 -202 -621 -242q16 -77 16 -167q0 -110 -57 -184q408 -199 408 -433zM1883 -432q0 127 -289 311q-45 0 -134.5 -11.5t-134.5 -11.5q-194 0 -343 -53q-197 -70 -197 -211q0 -153 188 -246q158 -79 356 -79q211 0 362 63
q192 80 192 238z" />
    <glyph glyph-name="questiondown" unicode="&#xbf;" horiz-adv-x="2872" 
d="M3056 2639h-1706v-820q163 96 294 143q194 70 380 70q185 0 352 -120q197 -142 239 -384q0 -22 5.5 -64.5t5.5 -64.5q0 -279 -191 -602q-62 -105 -192 -265l-335 269q64 68 86 97q188 240 302 532q27 71 27 142q0 164 -185 164q-30 0 -60 -4q-206 -28 -429 -137
q-154 -75 -367 -218q-138 -209 -414 -314q89 -133 366 -399q126 -122 505 -461q146 -131 249 -220l-192 -173q-56 44 -370 336q-420 390 -723 718q-410 445 -474 638v87q0 114 160 151q97 22 271 -58l276 -127v1084h-912l-212 283h3032z" />
    <glyph glyph-name="Aring" unicode="&#xc5;" horiz-adv-x="3181" 
d="M3244 -213q-560 -195 -903 -195t-653 182q-345 203 -345 478q0 337 514 487q337 98 755 98q-271 372 -891 372q-476 0 -804 -248q-345 -260 -345 -651q0 -578 989 -1067q305 -151 350 -151l-138 -168q-148 31 -474 212q-1083 603 -1083 1289q0 540 589 841
q-349 315 -349 593q0 161 147 258q129 84 298 84h1265v438h-2375l-212 283h3646l213 -283h-911v-721h-1493q-266 0 -266 -169q0 -208 235 -390q276 107 594 107q866 0 1286 -661q59 -119 118 -234q-479 -40 -687 -75q-639 -108 -639 -283q0 -14 2 -23q0 -327 372 -327
q285 0 665 124q127 41 323 128z" />
    <glyph glyph-name="AE" unicode="&#xc6;" horiz-adv-x="1787" 
d="M342 2994q16 74 16 120q0 163 -127 301l238 195l245 -195q0 -42 -66 -204q-61 -151 -93 -208q-93 -164 -281 -340l-102 78q140 111 170 253zM979 2994q17 74 17 120q0 136 14 196v0v0q9 35 17 41q5 -5 7 -12q-13 -14 -27 -29q-47 4 -139 105l240 195l243 -195
q0 -132 -159 -412q-93 -162 -282 -340l-101 78q138 110 170 253z" />
    <glyph glyph-name="Egrave" unicode="&#xc8;" horiz-adv-x="2596" 
d="M1749 1734v905h-1073zM1749 1484v0l-1073 903v-832q0 -359 436 -359q170 0 350 77q194 83 287 211zM2640 2922l175 -283h-694v-2763l-372 274v836q-219 -82 -403 -82q-341 0 -681 216q-361 230 -361 505v1014h-298l-212 283h2846z" />
    <glyph glyph-name="Eacute" unicode="&#xc9;" horiz-adv-x="4367" 
d="M4059 270l-388 -323l-388 323l388 323zM2465 270l-388 -323l-389 323l389 323zM870 270l-388 -323l-387 323l387 323z" />
    <glyph glyph-name="Edieresis" unicode="&#xcb;" horiz-adv-x="3393" 
d="M2734 1830l245 -194l-240 -200l-239 200zM2137 154v-1381l-209 137v1244h-342v-761q0 -88 -150 -88q-165 46 -346 272q-9 12 -9 32q0 56 76 56h200v489h-149l-119 142h70q-80 34 -174 85q-332 180 -596 420q-35 33 -228 230l149 72q86 -91 175 -178q196 -189 467 -336
q334 -181 645 -181q631 0 854 460q28 57 28 102q0 159 -155 159q-146 0 -335 -18q-505 -48 -722 -48q-185 0 -426 221q-276 253 -276 531q0 256 202 346q129 57 393 57h840v421h-2073l-212 283h3756l212 -283h-1285v-721h-941q-333 0 -434 -32q-155 -49 -155 -221
q0 -84 66 -184q74 -112 168 -112q169 0 505 28.5t504 28.5q266 0 452 -158q196 -166 196 -427q0 -305 -313 -503q-95 -60 -207 -104z" />
    <glyph glyph-name="Iacute" unicode="&#xcd;" horiz-adv-x="3035" 
d="M2561 1830l244 -194l-239 -200l-238 200zM3330 2639h-1105v-721h-941q-334 0 -434 -32q-154 -49 -154 -221q0 -84 66 -184q74 -112 167 -112q168 0 504 28.5t505 28.5q265 0 452 -158q197 -167 197 -427q0 -304 -314 -503q-289 -183 -664 -183q-379 0 -797 226
q-328 177 -595 420q-54 49 -229 230l150 72q71 -77 175 -178q195 -189 467 -336q334 -181 643 -181q633 0 855 460q27 57 27 102q0 159 -153 159q-145 0 -335 -18q-506 -48 -724 -48q-184 0 -425 221q-276 253 -276 531q0 257 202 346q129 57 394 57h838v421h-1741l-214 283
h3246zM1462 -575v119q-117 136 -359 136q-367 0 -367 -253q0 -80 97 -141q86 -54 171 -54q149 0 310 90q66 37 148 103zM1506 191v-577l-79 174q-49 36 -87 54q-109 53 -219 53q-467 0 -467 -326q0 -184 150 -300q138 -107 328 -107q184 0 374 129v-382l170 -130v726
q323 249 483 249q162 0 162 -113q0 -40 -10 -57q-26 -207 -494 -406l123 -163q531 225 520 514q-5 128 -95 236q-101 121 -240 121q-199 0 -449 -180v485h-170z" />
    <glyph glyph-name="Icircumflex" unicode="&#xce;" horiz-adv-x="1709" 
d="M2221 2639h-2254l-214 283h2254zM2051 1745h-897q-150 0 -262 -104q-116 -107 -116 -255q0 -53 17 -106q97 -309 388 -625q88 -95 272 -252l-166 -155q-15 0 -181 160q-240 231 -383 429q-222 307 -307 606q-21 71 -21 138q0 71 36 164h-291l-245 327h2156v-327z" />
    <glyph glyph-name="Idieresis" unicode="&#xcf;" horiz-adv-x="4547" 
d="M2738 2589v-981q450 271 818 271q303 0 527 -254q206 -234 206 -495q0 -421 -541 -952l-324 288q213 191 369 417q194 282 194 482q0 239 -356 239q-315 0 -893 -406v-1372l-371 275l-1 1593h-1063q-151 0 -270 -111t-119 -261q0 -49 22 -110q160 -453 663 -860
l-164 -154q-22 5 -180 159q-550 535 -693 1036q-20 72 -20 138q0 71 37 163h-293l-243 329h2324v566h-2365l-212 283l4712 7l213 -290h-1977z" />
    <glyph glyph-name="Ntilde" unicode="&#xd1;" horiz-adv-x="1145" 
d="M1629 3892l-149 -115q-71 98 -106 133q-136 137 -266 137q-308 0 -308 -478q0 -200 -6 -372l-10 -275h361l213 -283h-495v-2763l-371 274v2489h-824l-212 283h1116q-92 309 -287 589q-294 421 -639 421q-446 0 -446 -425q0 -107 43 -217q8 -21 22 -40l-336 18
q-33 55 -52 102q-54 132 -54 247q0 324 239 492q202 142 490 142q57 0 100 -5q567 -65 920 -761l-32 231q-16 124 -16 154q0 501 472 501q33 0 84 -5q247 -24 422 -248q57 -74 127 -226z" />
    <glyph glyph-name="Ograve" unicode="&#xd2;" horiz-adv-x="4367" 
d="M4059 2966l-388 -323l-388 323l388 324zM2465 2966l-388 -323l-389 323l389 324zM870 2966l-388 -323l-387 323l387 324z" />
    <glyph glyph-name="Odieresis" unicode="&#xd6;" horiz-adv-x="1483" 
d="M43 761h1281v-230h-1281v230zM43 1280h1281v-230h-1281v230z" />
    <glyph glyph-name="Oslash" unicode="&#xd8;" horiz-adv-x="3019" 
d="M3281 2639h-740v-2763l-372 274v536q-438 -270 -829 -270q-379 0 -659 266q-215 204 -335 496q-16 41 -88 265q34 0 102.5 -2t103.5 -2q786 0 786 198q0 13 -6 28q0 314 -631 314q-257 0 -577 -30l-576 -54v302q163 0 488.5 17t489.5 17q404 0 748 -167
q394 -191 394 -479q0 -257 -388 -381q-275 -88 -584 -88q227 -404 636 -404q256 0 613 178q116 58 312 181v1568h-2178l-212 283h3284z" />
    <glyph glyph-name="Ugrave" unicode="&#xd9;" horiz-adv-x="1274" 
d="M435 1633l308 -247l-308 -243l-297 243zM284 -234q18 82 18 132q0 195 -164 372l297 248l308 -248q0 -48 -84 -252q-76 -184 -118 -257q-122 -214 -350 -429l-128 102q178 135 221 332z" />
    <glyph glyph-name="Uacute" unicode="&#xda;" horiz-adv-x="833" 
d="M306 3291q17 -75 17 -119q0 -162 -129 -302l240 -194l244 194q0 132 -160 412q-94 166 -280 341l-101 -79q137 -108 169 -253z" />
    <glyph glyph-name="Ucircumflex" unicode="&#xdb;" horiz-adv-x="1710" 
d="M1030 3458q0 -263 -42.5 -788t-42.5 -788v-593q0 -55 -2.5 -164t-2.5 -164v-49l-404 226v501q0 71 4 486q3 206 -31 762q-32 537 -32 842zM1136 270l-388 -323l-388 323l388 323z" />
    <glyph glyph-name="Udieresis" unicode="&#xdc;" horiz-adv-x="2461" 
d="M601 2289q658 0 654 -558q-3 -340 -324 -477q-148 -63 -330 -63q-374 0 -577 281q-91 126 -91 264q0 301 338 474q155 79 330 79zM957 1722q0 192 -71 332q-95 190 -295 186q-182 -3 -276 -167q-71 -124 -74 -298q-4 -187 65 -328q92 -190 285 -190q366 0 366 465z
M1636 1084q654 0 654 -558q0 -335 -326 -472q-150 -63 -328 -63q-370 0 -577 283q-92 127 -92 262q0 298 338 470q154 78 331 78zM1993 522q0 193 -71 332q-96 189 -295 186q-178 -3 -275 -167q-71 -122 -76 -298q-4 -185 65 -327q93 -191 286 -191q366 0 366 465z
M1866 2227v-163l-1510 -2100v165z" />
    <glyph glyph-name="germandbls" unicode="&#xdf;" horiz-adv-x="4189" 
d="M4216 2924l213 -283h-695v-3126l-372 274v376h-945v-327q0 -137 -181 -137q-156 0 -418 226q-267 230 -267 380q0 155 175 155h318v107l45 49l-6 7q-220 -71 -424 -71q-525 0 -918 294q-432 322 -432 830q0 509 823 509h740v452h-1893l-213 285h4450zM2259 1882h-1058
q-568 0 -568 -430q0 -307 272 -492q241 -163 562 -163q229 0 421 88q-187 278 -187 324q0 124 192 124q55 0 106 -17q531 -176 531 -333q0 -139 -113 -219v-302h945v2179h-1099z" />
    <glyph glyph-name="aring" unicode="&#xe5;" horiz-adv-x="2742" 
d="M2770 -209l-245 -127l-387 691q-526 -439 -978 -439q-309 0 -642 155q-389 181 -389 421q0 442 601 544q-446 323 -446 766q0 456 738 456h669v381h-1622l-213 283h2899l218 -283h-947v-655h-940q-495 0 -510 -336q-13 -269 207 -446q234 -188 541 -188q208 0 372 80
l-132 203q-32 50 -32 80q0 115 170 115q35 0 96 -17q484 -134 484 -297q0 -80 -48 -142q-22 -22 -165 -119zM1978 625l-122 220q-41 -10 -112 -21q-176 -27 -249 -27q-191 0 -357 44l-366 -115q-297 -127 -297 -301q0 -121 143 -214q133 -87 283 -87q324 0 674 231
q38 25 403 270z" />
    <glyph glyph-name="ae" unicode="&#xe6;" horiz-adv-x="1425" 
d="M1093 3291q-16 -74 -16 -119q0 -163 128 -302l-239 -194l-246 194q0 38 67 205q61 152 92 207q95 167 282 341l101 -79q-139 -110 -169 -253zM456 3291q-17 -75 -17 -119q0 -162 128 -302l-240 -194l-243 194q0 132 159 412q95 166 281 341l101 -79q-137 -108 -169 -253z
" />
    <glyph glyph-name="ccedilla" unicode="&#xe7;" horiz-adv-x="4889" 
d="M3104 3471l-296 -296l-288 296l288 306zM3860 3135q-160 -249 -271 -363q-360 -368 -787 -368q-410 0 -724 372q-239 283 -239 421v31l181 115q99 -234 177 -345q242 -345 583 -345q297 0 601 362q101 120 244 368zM4709 1191q0 -349 -198 -690q-224 -386 -547 -386
q-282 0 -482 297q-133 197 -223 505q-292 -469 -591 -469q-259 0 -621 331q0 -275 -193 -481q-208 -222 -530 -222q-356 0 -696 345q-299 305 -457 646l-159 346l202 155q59 -178 107 -302q126 -326 340 -567q269 -304 589 -304q234 0 388 184q138 165 138 369
q0 268 -165 442q-149 -59 -271 -93q-116 -33 -377 -70q-24 -3 -111 -14l-160 297q334 40 499 85q499 136 499 402q0 143 -110 281q-122 153 -288 153q-233 0 -727 -261l-144 279q134 72 240 115q280 115 451 115q333 0 604 -253q262 -246 262 -527q0 -123 -75 -243
q-48 -76 -132 -164q11 -9 31 -30q44 -46 70 -80q64 -87 106 -186q11 -36 32 -93q107 -116 207 -195q214 -169 367 -169q13 -1 20 -1q166 0 351 307l208 345q61 99 243 395q274 446 553 446q341 0 558 -349q192 -309 192 -691zM4423 1289q0 183 -119 395q-142 252 -353 252
q-78 0 -172 -170q-119 -217 -223 -376l-150 -230q86 -322 246 -562q143 -213 281 -199q14 -1 22 -1q184 0 336 366q132 319 132 525z" />
    <glyph glyph-name="egrave" unicode="&#xe8;" horiz-adv-x="4368" 
d="M4556 2639h-2152q131 -100 222 -226q122 -169 122 -341q0 -213 -218 -372q8 -6 18 -12q36 -36 36 -49q222 180 319 239q240 146 456 146q48 -5 71 -5q326 -31 533 -264q194 -219 194 -502q0 -334 -239 -748q-75 -131 -240 -350l-344 284q180 159 260 260q260 326 260 660
q0 129 -107 253q-115 133 -264 133q-29 0 -64 -9q-222 -58 -372 -200l-223 -212q73 -160 73 -306q0 -353 -296 -553q-257 -173 -628 -173q-449 0 -897 346q-388 299 -612 646l-224 345l256 89q56 -128 138 -283q150 -284 442 -523q350 -287 759 -287q749 0 749 526
q0 148 -90 288q-62 97 -149 169q-183 -56 -387 -102q-261 -58 -485 -58h-36l-276 332q442 13 659 45q622 92 622 343q0 207 -373 471h-2120l-213 283h4607z" />
    <glyph glyph-name="eacute" unicode="&#xe9;" horiz-adv-x="4059" 
d="M1998 2639v-934q0 -261 116 -389q102 -112 457 -285l701 368v1240h-1274zM1626 1696q-217 146 -457 146q-185 0 -473 -124q-46 -20 -181 -79l-207 283q132 69 180 89q224 94 409 119q60 8 112 8q324 0 617 -207v708h-1589l-212 283h4201l212 -283h-593v-2763l-373 274
v948l-1775 -1005l-319 213l1229 637l-293 115q-138 54 -282 173l-1034 -416l-262 243l1116 421q-26 93 -26 177v40z" />
    <glyph glyph-name="divide" unicode="&#xf7;" horiz-adv-x="1994" 
d="M1866 2227v-163l-1509 -2100v165z" />
    <glyph glyph-name="oe" unicode="&#x153;" horiz-adv-x="1857" 
d="M2539 2639h-2530l-214 283h2530zM2369 1169l-1404 -797l-312 270l1499 753q-163 152 -362 270q-299 177 -532 177q-199 0 -573 -169q-157 -71 -330 -167l-276 269q206 111 378 182q435 181 706 181q316 0 791 -327q145 -99 415 -328v-314z" />
    <glyph glyph-name="circumflex" unicode="&#x2c6;" horiz-adv-x="3002" 
d="M1862 1411v1228h-1126v-1084q0 -359 436 -359q323 0 690 215zM2234 1215v-1339l-372 274v858q-249 -104 -456 -104q-14 0 -40.5 2t-40.5 2q-306 0 -628 230q-333 237 -333 487v1014h-317l-213 283h3607l212 -283h-1419v-1011q473 294 855 294q124 0 289 -84
q136 -69 219 -153q-200 0 -611 -127q-479 -148 -752 -343z" />
    <glyph glyph-name="breve" unicode="&#x2d8;" horiz-adv-x="2661" 
d="M2888 2639h-482l-213 283h484zM3155 890l-1642 625q-155 -92 -481 -242q-177 -81 -396 -162l-228 -84l-288 226q81 31 219 80q452 163 754 336q-257 100 -435 249q-250 209 -250 451q0 249 243 415q227 156 532 156q349 0 652 -206q320 -218 320 -503q0 -192 -132 -372
q-101 -138 -255 -220l1387 -523v-226zM1783 2316q0 394 -482 394q-197 0 -342 -92q-168 -108 -168 -294q0 -348 535 -544q161 76 267 172q190 173 190 364z" />
    <glyph glyph-name="tilde" unicode="&#x2dc;" horiz-adv-x="2514" 
d="M2112 938q0 -326 -256 -497q-219 -145 -562 -145q-373 0 -834 363q-151 118 -388 364l192 120q155 -180 264 -271q323 -270 628 -270q254 0 421 106q185 118 185 323q0 256 -234 448q-179 144 -707 571q-420 340 -420 492q0 178 161 286q142 94 328 94h983l211 -283
h-1120q-191 0 -191 -150q0 -73 223 -271q79 -70 466 -364q294 -224 433 -384q217 -251 217 -532z" />
    <glyph glyph-name="hungarumlaut" unicode="&#x2dd;" horiz-adv-x="3214" 
d="M3342 2639h-824v-721h-1493q-266 0 -266 -169q0 -118 91 -243q60 -82 144 -147q277 107 594 107q553 0 877 -107q203 -67 357 -239v-1465l-372 274v652q-178 -19 -293 -236q-35 -66 -81 -212l-408 199l96 204q-109 90 -276 70q-236 -28 -266 -234q-4 -25 -4 -46
q0 -216 291 -432q92 -68 330 -190l-155 -165q-272 149 -409 258q-415 330 -415 646q0 223 159 357q150 125 378 125q295 0 484 -226q158 186 499 186l70 -8v168q-80 83 -191 115q-172 49 -547 49q-454 0 -789 -239q-360 -257 -360 -660q0 -326 345 -642q252 -232 644 -425
q306 -151 350 -151l-138 -168q-149 31 -474 212q-442 247 -716 528q-367 377 -367 761q0 311 224 562q153 171 365 279q-349 317 -349 593q0 161 147 258q129 84 298 84h1265v438h-2375l-212 283h3559z" />
    <glyph glyph-name="endash" unicode="&#x2013;" horiz-adv-x="1956" 
d="M1813 1616h-1641v302h1641v-302z" />
    <glyph glyph-name="emdash" unicode="&#x2014;" horiz-adv-x="2222" 
d="M140 1140h1919v-230h-1919v230z" />
    <glyph glyph-name="quoteleft" unicode="&#x2018;" horiz-adv-x="1034" 
d="M509 3397q-16 -72 -16 -119q0 -163 127 -302l-238 -194l-245 194q0 132 159 412q95 166 281 341l101 -79q-138 -110 -169 -253z" />
    <glyph glyph-name="quoteright" unicode="&#x2019;" horiz-adv-x="1020" 
d="M377 3039q16 74 16 120q0 163 -127 301l238 195l245 -195q0 -133 -159 -412q-93 -162 -281 -340l-102 78q140 111 170 253z" />
    <glyph glyph-name="ellipsis" unicode="&#x2026;" horiz-adv-x="833" 
d="M509 3291q-17 -75 -17 -119q0 -162 128 -302l-240 -194l-243 194q0 132 159 412q95 166 281 341l101 -79q-137 -108 -169 -253z" />
    <glyph glyph-name="perthousand" unicode="&#x2030;" horiz-adv-x="2448" 
d="M2998 1236q-368 -58 -499 -58q-95 0 -188 7l-201 15q155 -165 155 -376q0 -299 -319 -509q-218 -143 -515 -213l786 -668l-200 -173l-868 779q-44 0 -132.5 -6.5t-132.5 -6.5q-203 0 -372 103q-186 113 -186 278q0 122 113 194q97 62 226 62q180 0 340 -155
q1 -1 144 -137q303 44 514 151q283 144 283 358q0 30 -5 53q-41 195 -138 195q-55 -8 -199 -33l-216 -38q-347 -61 -431 -61q-285 0 -520 296q-207 262 -207 487q0 279 260 358q161 49 702 49h531v452h-1819l-212 283h2956l212 -283h-770v-753h-803q-400 0 -521 -22
q-215 -39 -215 -158q0 -13 3 -28q0 -368 287 -368q143 0 420.5 71t420.5 71q73 0 169 -43q460 0 935 93q118 23 212 61v-327z" />
    <glyph glyph-name="integral" unicode="&#x222b;" horiz-adv-x="4189" 
d="M4143 -164l-251 -132l-594 982l-1196 -496l144 -349q10 -26 10 -50q0 -97 -122 -119q-179 0 -527 142q-392 160 -431 301q0 137 107 137l299 103l-118 251q-340 -118 -552 -118q-296 0 -542 118q-293 140 -293 372q0 265 228 411q195 126 474 126q605 0 1174 -1033
l669 240q-892 294 -892 983q0 315 255 460q180 102 399 102h781v372h-3215l-214 283h4489l219 -283h-950v-673h-1110q-181 0 -276 -151q-75 -118 -75 -283q0 -222 229 -432q235 -215 498 -215q182 0 405 80l-143 231q-38 48 -38 93q0 120 181 120q44 0 105 -19
q123 -38 335 -124q197 -102 197 -203q0 -204 -286 -306zM1368 771q-104 183 -244 336q-208 226 -383 226q-292 0 -292 -279q0 -350 648 -350q85 0 271 67z" />
    <glyph glyph-name="glyph4" 
 />
    <glyph glyph-name="glyph5" 
 />
    <glyph glyph-name="glyph4" 
 />
    <glyph glyph-name="glyph5" 
 />
    <glyph glyph-name="HT" 
 />
    <glyph glyph-name="nonmarkingreturn" 
 />
    <glyph glyph-name="glyph148" 
 />
    <glyph glyph-name="glyph149" 
 />
  </font>
</defs>
</svg>
